<?xml version="1.0" standalone="no"?>
<!DOCTYPE svg PUBLIC "-//W3C//DTD SVG 1.1//EN" "http://www.w3.org/Graphics/SVG/1.1/DTD/svg11.dtd" >
<!--
2013-9-30: Created.
-->
<svg>
<metadata>
Created by iconfont
</metadata>
<defs>

<font id="iconfont" horiz-adv-x="1024" >
  <font-face
    font-family="iconfont"
    font-weight="500"
    font-stretch="normal"
    units-per-em="1024"
    ascent="896"
    descent="-128"
  />
    <missing-glyph />
    
    <glyph glyph-name="radioon" unicode="&#58941;" d="M512-97.88199999999995a481.882 481.882 0 1 0 0 963.764 481.882 481.882 0 0 0 0-963.764z m0 60.235a421.647 421.647 0 1 1 0 843.294 421.647 421.647 0 0 1 0-843.294z m0 150.588a271.059 271.059 0 1 0 0 542.118 271.059 271.059 0 0 0 0-542.118z"  horiz-adv-x="1024" />

    
    <glyph glyph-name="radiooff" unicode="&#58944;" d="M524.434-116.29700000000003a487.863 487.863 0 1 1 0 975.726 487.863 487.863 0 0 1 0-975.726z m0 73.143a414.72 414.72 0 1 0 0 829.44 414.72 414.72 0 0 0 0-829.44z"  horiz-adv-x="1024" />

    
    <glyph glyph-name="switchon" unicode="&#58938;" d="M0.00011 384C0.00011 631.424 200.32011 832 447.55211 832h896.896C1591.61611 832 1792.00011 630.912 1792.00011 384c0-247.424-200.32-448-447.552-448H447.55211A447.68 447.68 0 0 0 0.00011 384zM1344.00011 0a384 384 0 1 1 0 768 384 384 0 0 1 0-768z"  horiz-adv-x="1792" />

    
    <glyph glyph-name="switchoff" unicode="&#58939;" d="M0.00011 384C0.00011 631.424 200.32011 832 447.55211 832h896.896C1591.61611 832 1792.00011 630.912 1792.00011 384c0-247.424-200.32-448-447.552-448H447.55211A447.68 447.68 0 0 0 0.00011 384zM448.00011 0a384 384 0 1 1 0 768 384 384 0 0 1 0-768z"  horiz-adv-x="1792" />

    
    <glyph glyph-name="touping" unicode="&#58997;" d="M525.637818 118.365091a46.545455 46.545455 0 0 0 65.815273 0l166.912-166.912A46.545455 46.545455 0 0 0 725.457455-128H391.633455a46.545455 46.545455 0 0 0-32.907637 79.453091zM977.454545 896c73.309091 0 135.074909-52.922182 139.403637-122.088727l0.232727-7.726546v-624.733091c0-70.283636-59.112727-125.719273-131.537454-129.582545L977.454545 11.636363999999958h-139.636363a46.545455 46.545455 0 0 0-5.445818 92.765091L837.818182 104.72727299999997h139.636363c24.715636 0 43.473455 15.080727 46.219637 32.395636l0.325818 4.328727V766.1847270000001c0 17.594182-16.849455 33.978182-40.494545 36.398546L977.454545 802.909091H139.636364c-24.715636 0-43.473455-15.080727-46.219637-32.395636L93.090909 766.1847270000001v-624.733091c0-17.594182 16.849455-33.978182 40.494546-36.398545L139.636364 104.72727299999997h139.636363a46.545455 46.545455 0 0 0 5.445818-92.765091L279.272727 11.636363999999958H139.636364C66.327273 11.636363999999958 4.561455 64.55854499999998 0.232727 133.72509100000002L0 141.451636V766.1847270000001C0 836.421818 59.112727 891.904 131.537455 895.767273L139.636364 896h837.818181z"  horiz-adv-x="1117" />

    
    <glyph glyph-name="jiebang" unicode="&#58936;" d="M0 384c0-138.071 111.93-250 250-250h181.582v80.418H250c-93.658 0-169.582 75.924-169.582 169.582 0 93.657 75.924 169.582 169.582 169.582h181.582V634H250C111.93 634 0 522.071 0 384zM774 634H592.418v-80.418H774c93.657 0 169.582-75.925 169.582-169.582 0-93.658-75.925-169.582-169.582-169.582H592.418V134H774c138.071 0 250 111.929 250 250S912.071 634 774 634zM471.791 886.936h80.418v-160h-80.418zM307.5 896l78.306-138.565-70.012-39.566-78.307 138.565zM716.501 895.998l70.012-39.566-78.307-138.564-70.012 39.565zM471.791 41.065h80.418v-160h-80.418zM307.511-128L237.5-88.432l78.308 138.565 70.012-39.566zM716.5-127.995l-78.308 138.566 70.012 39.565 78.307-138.565z"  horiz-adv-x="1024" />

    
    <glyph glyph-name="daibanshixiang" unicode="&#60494;" d="M336 352C256.608 352 192 287.392 192 208S256.608 64 336 64s144 64.608 144 144-64.608 144-144 144z m0-224C291.904 128 256 163.872 256 208S291.904 288 336 288s80-35.872 80-80-35.904-80-80-80zM800 640h-211.424a32 32 0 1 1 0-64H800a32 32 0 1 1 0 64zM800 320h-211.424a32 32 0 1 1 0-64H800a32 32 0 1 1 0 64zM800 512h-211.424a32 32 0 1 1 0-64H800a32 32 0 1 1 0 64zM800 184h-211.424a32 32 0 1 1 0-64H800a32 32 0 1 1 0 64zM440 660.192l-120.992-148.608-71.04 80.352a32 32 0 0 1-47.936-42.4l71.008-80.352a63.648 63.648 0 0 1 48.032-21.632 63.36 63.36 0 0 1 49.536 23.584L489.6 619.808a32 32 0 0 1-49.6 40.384zM896 832H128c-35.296 0-64-28.704-64-64v-768c0-35.296 28.704-64 64-64h768c35.296 0 64 28.704 64 64V768c0 35.296-28.704 64-64 64zM128 0V768h768l0.064-768H128z"  horiz-adv-x="1024" />

    
    <glyph glyph-name="cz-bljl" unicode="&#59422;" d="M517.2 18l-69.7 38.1-30.6 16.7-30.6-16.7-86.9-47.3-86.7 47.3-30.6 16.7-30.6-16.7-22.6-12.3V736c0 17.7 14.3 32 32 32h511.6c17.7 0 32-14.3 32-32v-381c0-17.7 14.3-32 32-32s32 14.3 32 32V768c0 35.3-26.2 64-58.6 64H123.4C91 832 64.7 803.3 64.7 768v-832L182 0l117.3-64 117.5 64 69.7-38.1c21.3-11.7 47.3 3.8 47.3 28.1 0 11.7-6.4 22.4-16.6 28zM639.5-30.899999999999977c0-17.7 14.3-32 32-32s32 14.3 32 32V223.89999999999998c0 17.7-14.3 32-32 32s-32-14.3-32-32v-254.8zM799.3 159.89999999999998c-17.7 0-32-14.3-32-32v-158.8c0-17.7 14.3-32 32-32s32 14.3 32 32V127.89999999999998c0 17.7-14.4 32-32 32zM927.3 96.89999999999998c-17.7 0-32-14.3-32-32v-95.8c0-17.7 14.3-32 32-32s32 14.3 32 32v95.8c0 17.7-14.4 32-32 32zM544.6 324h-256c-17.7 0-32-14.3-32-32s14.3-32 32-32h256c17.7 0 32 14.3 32 32s-14.3 32-32 32zM303.4 402.9c12.5-12.5 32.8-12.5 45.3 0l67.9 67.9 67.9-67.9c12.5-12.5 32.8-12.5 45.3 0s12.5 32.8 0 45.3l-68 67.8 67.9 67.9c12.5 12.5 12.5 32.8 0 45.3s-32.8 12.5-45.3 0l-67.9-67.9-67.9 67.9c-12.5 12.5-32.8 12.5-45.3 0s-12.5-32.8 0-45.3l67.9-67.9-67.9-67.9c-12.3-12.5-12.3-32.7 0.1-45.2z"  horiz-adv-x="1024" />

    
    <glyph glyph-name="wenhao" unicode="&#58932;" d="M512 896a512 512 0 1 0 0-1024A512 512 0 0 0 512 896z m0-861.888a68.288 68.288 0 1 1 0 136.576 68.288 68.288 0 0 1 0-136.576z m186.56 379.648c29.952 43.904 41.088 82.304 40.96 136.192-0.128 84.864-80.256 174.976-200.96 174.976-128.64 0-253.696-63.744-253.696-227.2l113.28-0.384c0 55.808 36.032 114.944 113.024 114.944 46.08 0 112.64-18.624 112.64-86.72 0-62.656-20.48-75.456-81.92-120.32-59.328-40.32-89.6-92.992-87.424-158.08v-33.664h115.584c0 102.912 72.768 115.392 128.512 200.32z"  horiz-adv-x="1024" />

    
    <glyph glyph-name="weixiu" unicode="&#58934;" d="M835.707408 104.9107c8.945488-8.935549 8.945488-23.039602-0.268365-32.52182-8.667184-8.408759-22.771238-8.408759-31.99503 0.546669l-140.434229 140.145985c-8.667184 8.935549-8.667184 23.039602 0.546669 32.253456 8.677124 8.677124 23.317907 8.677124 32.531759 0L835.707408 104.9107zM773.625718 896c14.640783 0 29.55987-1.083398 44.190713-4.601957 15.455816-2.713465 29.54993-7.325361 43.107315-13.020655 18.974375-8.130455 28.198167-30.633328 19.789408-50.154372a39.638453 39.638453 0 0 0-7.86209-11.927318c-29.013201-29.003261-58.016462-57.748098-86.761299-86.751359l4.880261-17.354247 4.343532-17.622613 17.890977-4.88026 17.354247-4.611897c28.734897 29.003261 57.748098 57.479733 86.751359 86.761299 14.650722 14.909147 39.042087 14.909147 54.2196 0 4.343532-4.611896 7.593726-10.307191 9.223792-16.27085a195.558317 195.558317 0 0 0 11.658953-38.495418v-0.546669h0.268365c2.703525-13.825749 4.343532-28.734897 4.343532-44.459078 0-60.998292-25.216338-117.116322-65.610188-157.788476-40.125485-40.39385-96.52182-65.341823-157.788477-65.341823-4.343532 0-8.677124 0.268365-13.020655 0.268364l-42.292282-41.745612L950.935238 174.854481l1.888492-2.166797a156.715018 156.715018 0 0 0 44.190713-109.254232c0-40.125485-15.177512-80.519335-46.089144-111.152663l-0.546669-0.546669c-30.901693-30.374903-70.490449-45.552415-110.615934-45.552415s-81.056065 15.177512-111.152663 46.099084l-233.159187 232.880882-237.741264-238.307812c-49.617642-49.607703-109.532536-53.951235-158.60351-32.810063-18.974375 7.86209-36.050318 19.789408-50.154371 33.893461h-0.268365c-14.094114 14.362479-25.753067 31.179997-33.615158 49.886007-21.141171 49.070974-16.807579 109.254232 33.078429 158.593571v0.546669L313.290884 422.107781l-97.05855 97.058549-86.214629 25.753067a37.740022 37.740022 0 0 0-24.401305 21.419475L22.930269 760.177667c-7.593726 14.094114-5.148626 32.53176 6.778692 44.459078L64.407517 839.066936 98.569343 873.228762c10.575555 10.565616 27.114769 14.640783 41.755552 8.130455l196.283895-83.769529a37.571051 37.571051 0 0 0 21.68784-24.401305l25.484703-86.214629 97.058549-97.05855 69.675415 69.138686c-0.268365 4.880261-0.546669 9.492157-0.546668 13.010716h0.268364c0 62.08169 24.947973 118.19972 65.341824 158.325206v0.278304c40.383911 40.115546 96.511881 65.331884 158.046901 65.331884z m-109.532536-542.752601l-114.402857-114.412797 232.602578-232.602578c15.455816-15.724181 36.865352-23.854636 57.469793-23.854636s41.487187 8.130455 56.943004 23.586271l0.536729 0.268365c15.724181 15.177512 23.049542 36.596987 23.049542 57.201428 0 20.067712-7.325361 40.39385-21.966144 55.581302l-1.620127 1.620127-232.612518 232.612518zM366.963814 475.790651l59.914894 59.636589-103.837242 104.105607a38.525237 38.525237 0 0 0-10.297251 18.974375l-22.502873 76.185743L134.082932 800.571517l-15.992545-15.72418-15.992546-16.260911 66.425222-156.158409 78.620903-23.049542c6.510328-1.898431 11.927318-5.148626 16.27085-10.028887L366.963814 475.790651zM768.208728 819.545892a146.248796 146.248796 0 0 1-98.688616-43.375679 145.562976 145.562976 0 0 1-43.37568-104.105607h0.546669v-10.575555l1.083398-8.945488c2.703525-11.927318-1.083398-24.938034-10.30719-34.430191L102.097841 103.012269h-0.268364c-23.854636-24.669669-26.568101-52.599472-16.807579-75.639074 4.065228-8.935549 10.307191-17.890977 17.622612-25.474764 7.86209-7.593726 16.539214-13.557385 26.031371-17.622612 23.039602-10.028886 50.701041-7.315422 75.092406 16.539214l264.060879 264.05094 1.083398 1.083398 168.085728 168.354092 1.083398 1.351763 80.7877 80.250971h0.268364c7.86209 8.677124 20.067712 13.010716 32.263395 11.112284 3.796863-0.536729 7.315422-1.083398 11.390589-1.083398 2.703525-0.268365 6.500388-0.546669 10.84392-0.546669 40.672154 0 77.537506 16.539214 104.105606 42.560646v0.546669c25.216338 24.938034 41.208883 59.914894 42.570586 98.688616-16.539214-16.807579-33.078428-33.078428-49.617643-50.154371-9.482218-10.565616-23.854636-14.909147-38.495418-11.658954l-38.495419 10.575556-39.042087 10.565615c-13.020655 3.528498-23.586271 13.020655-27.11477 27.11477l-10.297251 39.042087-10.575555 39.042087c-2.981829 11.927318-0.268365 26.568101 10.038826 36.060258 17.056065 17.344308 34.141948 34.420252 51.496195 51.774499z"  horiz-adv-x="1027" />

    
    <glyph glyph-name="log-theme" unicode="&#58957;" d="M87.552 67.58399999999995h5.12l190.976 26.624a38.4 38.4 0 0 1 23.552 11.264l506.88 508.416a38.4 38.4 0 0 1 0 54.272l-164.352 164.352a38.4 38.4 0 0 1-54.272 0L87.04 324.096a38.4 38.4 0 0 1-10.752-22.016L51.2 111.10400000000004a38.4 38.4 0 0 1 36.352-43.52z m59.904 192.512l94.208-94.208-109.056-14.848z m369.664 386.048L627.712 537.6l-341.504-343.552-110.08 110.592z m102.4 102.4L732.672 640 665.6 571.904l-111.616 110.592zM936.448 1.024000000000001H87.552a38.4 38.4 0 1 1 0-76.8h848.896a38.4 38.4 0 0 1 0 76.8z"  horiz-adv-x="1024" />

    
    <glyph glyph-name="rizhi" unicode="&#58931;" d="M904 657.5L746.2 811.8c-13.1 13.1-31 20-48.9 20H195.8c-53.7 0-97.1-44.1-97.1-97.8v-700c0-53.7 43.4-97.8 97.1-97.8h631.7c53.7 0 97.8 44.1 97.8 97.8V607.2c0 18.6-8.2 37.2-21.3 50.3zM856.4 34c0-15.8-13.1-28.9-28.9-28.9H195.8c-15.8 0-28.2 13.1-28.2 28.9V734c0 15.8 12.4 28.9 28.2 28.9l454-0.7v-121.9c0-57.2 46.2-103.3 103.3-103.3h103.3v-503z m0 571.8H753.1c-19.3 0-34.4 15.2-34.4 34.4v102l137.8-135v-1.4zM684 420.8H339.5c-19 0-34.4-15.4-34.4-34.4s15.4-34.4 34.4-34.4H684c19 0 34.4 15.4 34.4 34.4S703 420.8 684 420.8zM684 214.1H339.5c-19 0-34.4-15.4-34.4-34.4s15.4-34.4 34.4-34.4H684c19 0 34.4 15.4 34.4 34.4S703 214.1 684 214.1z"  horiz-adv-x="1024" />

    
    <glyph glyph-name="xiugaishuju" unicode="&#58930;" d="M438 320c6.6-6.3 15.3-9.7 24.2-9.7 2.6 0 5.3 0.3 7.9 0.9l118.2 27.4c6.3 1.5 12.1 4.6 16.7 9.2l342.5 338.6c6.6 6.6 10.4 15.5 10.4 24.8s-3.7 18.3-10.3 24.8l-95.2 95.2c-13.6 13.6-35.7 13.7-49.4 0.1L460.6 492.7c-5.1-5-8.5-11.4-9.8-18.4l-23-122.6c-2.2-11.6 1.7-23.6 10.2-31.7z m79.6 130.6l310 306.4 45.7-45.7-310.4-306.9-56.4-13 11.1 59.2zM243.2 484.8v-412c0-19.3 15.7-35 35-35s35 15.7 35 35v412c0 19.3-15.7 35-35 35s-35-15.7-35-35zM485.7 210.3v-137.5c0-19.3 15.7-35 35-35s35 15.7 35 35V210.3c0 19.3-15.7 35-35 35s-35-15.7-35-35zM728.2 347.4v-274.6c0-19.3 15.7-35 35-35s35 15.7 35 35V347.4c0 19.3-15.7 35-35 35s-35-15.7-35-35zM928 339.9c-19.3 0-35-15.7-35-35v-302.1H135v613h271.7c19.3 0 35 15.7 35 35s-15.7 35-35 35H100c-19.3 0-35-15.7-35-35v-683c0-19.3 15.7-35 35-35h828c19.3 0 35 15.7 35 35V304.9c0 19.3-15.7 35-35 35z"  horiz-adv-x="1024" />

    
    <glyph glyph-name="xiala" unicode="&#58929;" d="M362.66668761 651.65790436a66.247508 66.247508 0 0 0 113.075705 46.84224l510.841582-510.82754L1504.82539361 705.91402336a66.23487 66.23487 0 0 0 93.670438-93.670437L1033.39813061 47.15992735999998a66.163259 66.163259 0 0 0-93.670437 0L382.07195561 604.81566536A66.121135 66.121135 0 0 0 362.66668761 651.65790436z m0 0"  horiz-adv-x="1978" />

    
    <glyph glyph-name="chaxun2" unicode="&#58963;" d="M448 725.333333a277.333333 277.333333 0 1 1 194.048-475.477333l1.92 2.176a30.549333 30.549333 0 0 0 2.133333 1.962667A277.333333 277.333333 0 0 1 448 725.333333z m0 85.333334a362.666667 362.666667 0 0 0 284.885333-587.136l193.28-193.365334a42.624 42.624 0 1 0-60.330666-60.330666l-193.365334 193.28A362.666667 362.666667 0 1 0 448 810.666667z"  horiz-adv-x="1024" />

    
    <glyph glyph-name="yiqiyibiao" unicode="&#59098;" d="M928.143934 895.950881l-767.961882 0c-17.686807 0-31.998753-14.374368-31.998753-31.998753l0-959.953376c0-17.748205 14.311946-31.998753 31.998753-31.998753l767.961882 0c17.685783 0 31.998753 14.250548 31.998753 31.998753L960.142687 863.952129C960.141664 881.576514 945.829718 895.950881 928.143934 895.950881zM896.145181-64.002494l-703.965399 0L192.179782 831.953376l703.965399 0L896.145181-64.002494zM288.175017 383.975952l511.974929 0c17.686807 0 31.998753 14.249525 31.998753 31.998753L832.148699 735.959164c0 17.624385-14.311946 31.998753-31.998753 31.998753l-511.974929 0c-17.686807 0-31.998753-14.374368-31.998753-31.998753L256.176264 415.974705C256.177288 398.225477 270.489234 383.975952 288.175017 383.975952zM320.17377 703.960411 768.152217 703.960411 768.152217 447.973458 608.156406 447.973458c-0.067538 35.315285-28.662778 63.871639-63.993412 63.871639-1.240246 0-2.471282-0.044002-3.694132-0.113587L437.261372 614.964583c-16.84258 16.749459-40.560747 20.249163-53.091119 7.74949-12.499673-12.499673-8.999969-36.248539 7.811912-52.997998l94.37125-94.37125c-3.947911-8.293888-6.166437-17.571173-6.184856-27.37239l-159.995811 0L320.172747 703.960411zM544.162993 287.980717c-70.715504 0-127.993988-57.372628-127.993988-127.992965 0-70.74825 57.278484-127.995011 127.993988-127.995011 70.714481 0 127.993988 57.246761 127.993988 127.995011C672.156981 230.607066 614.877474 287.980717 544.162993 287.980717zM544.162993 95.989223c-35.280493 0-63.997506 28.718036-63.997506 63.998529 0 35.278446 28.717013 63.996482 63.997506 63.996482 35.279469 0 63.996482-28.718036 63.996482-63.996482C608.159476 124.70726 579.442463 95.989223 544.162993 95.989223zM288.175017 191.985482c17.686807 0 31.998753 14.248501 31.998753 31.998753 0 17.624385-14.311946 31.998753-31.998753 31.998753s-31.998753-14.374368-31.998753-31.998753C256.177288 206.233983 270.489234 191.985482 288.175017 191.985482zM800.149946 255.981964c-17.686807 0-31.998753-14.374368-31.998753-31.998753 0-17.750252 14.311946-31.998753 31.998753-31.998753s31.998753 14.248501 31.998753 31.998753C832.148699 241.607596 817.836753 255.981964 800.149946 255.981964z"  horiz-adv-x="1024" />

    
    <glyph glyph-name="shuaxinshoudonghongfatancha" unicode="&#59282;" d="M576 480C576 462.336 590.336 448 608 448l256 0C881.664 448 896 462.336 896 480l0 256C896 753.664 881.664 768 864 768S832 753.664 832 736l0-164.48C758.528 689.152 628.864 768 480 768 250.24 768 64 581.76 64 352S250.24-64 480-64c204.416 0 374.4 147.456 409.344 341.824l-1.344 0.32c1.088 3.136 1.984 6.4 1.984 9.856 0 17.664-14.336 32-32 32-16.384 0-29.248-12.352-31.232-28.224C798.208 126.08 653.888 0 480 0 285.632 0 128 157.632 128 352S285.632 704 480 704c136.64 0 254.4-78.272 312.768-192L608 512C590.336 512 576 497.664 576 480z"  horiz-adv-x="1024" />

    
    <glyph glyph-name="shuaxin" unicode="&#58915;" d="M846.8 288.2C838.6 116.1 695.3-21 519.8-21 339-21 192.4 124.4 192.4 303.9c0 174.1 138.1 316.3 311.5 324.5v-154.5l343 185.6L504 876v-154.7C278.9 713 99 529.3 99 303.9c0-230.7 188.5-417.7 420.9-417.7 227.2 0 412.3 178.6 420.6 402h-93.7z m0 0"  horiz-adv-x="1024" />

    
    <glyph glyph-name="chaxun" unicode="&#59096;" d="M912 45.5c0-16.7-6.1-31-18.3-43.3-12.1-12.1-26.6-18.3-43.3-18.3-17.3 0-31.8 6.1-43.3 18.3L642.3 166.8C585 127 520.9 107.1 450.5 107.1c-45.8 0-89.7 8.9-131.5 26.7-41.9 17.8-77.9 41.9-108.2 72.1-30.3 30.3-54.3 66.3-72.1 108.2S112 399.8 112 445.6s8.9 89.7 26.7 131.5c17.8 41.9 41.9 77.9 72.1 108.2s66.3 54.3 108.2 72.1 85.7 26.7 131.5 26.7 89.7-8.9 131.5-26.7c41.9-17.8 77.9-41.9 108.2-72.1 30.3-30.3 54.3-66.3 72.1-108.2S789 491.4 789 445.6c0-70.5-19.9-134.5-59.7-191.8l165-164.9c11.9-11.9 17.7-26.4 17.7-43.4zM602.7 293.4c42.2 42.2 63.2 92.8 63.2 152.2 0 59.3-21 110-63.2 152.2C560.5 640 509.9 661 450.5 661c-59.3 0-110-21-152.2-63.2s-63.2-92.8-63.2-152.2c0-59.3 21-110 63.2-152.2 42.2-42.2 92.8-63.2 152.2-63.2s110.1 21.1 152.2 63.2z"  horiz-adv-x="1024" />

    
    <glyph glyph-name="bianliangguanli" unicode="&#58935;" d="M947.2-128h-153.6v51.2h153.6V844.8h-153.6V896h204.8v-1024h-51.2zM606.9248 390.5536l228.0448-402.3808h-186.2144l-132.0448 264.8064a238.7968 238.7968 0 0 0-14.7456 52.0192h-1.8944a386.304 386.304 0 0 0-17.1008-53.6064l-132.5056-263.2704H162.816l236.0832 399.36-215.6544 398.7968h190.976l109.7216-244.224A437.0944 437.0944 0 0 0 506.88 476.16h1.8944q9.984 32.4608 24.2176 68.5056l121.1392 241.6128H829.44zM76.8-76.8h153.6v-51.2H25.6V896h204.8v-51.2H76.8v-921.6z"  horiz-adv-x="1024" />

    
    <glyph glyph-name="chaxun1" unicode="&#58919;" d="M494.528 832a430.464 430.464 0 0 0 335.424-700.352l129.728-129.792-65.536-65.536-129.792 129.728A430.464 430.464 0 1 0 494.528 832z m0-92.736a338.176 338.176 0 0 1-337.792-337.792 338.176 338.176 0 0 1 337.792-337.728 338.176 338.176 0 0 1 337.728 337.728 338.176 338.176 0 0 1-337.728 337.792z"  horiz-adv-x="1024" />

    
    <glyph glyph-name="mima" unicode="&#58897;" d="M908.702808-127.749181h-746.483778c-38.390594-4.265622-72.515567 46.921837-72.515567 72.515567v482.015239c0 51.187459 55.453081 85.312432 85.312431 85.312432h42.656216v127.968648c0 145.031134 153.562377 255.937295 298.593512 255.937295s298.593511-110.906161 298.593511-255.937295v-127.968648h42.656216c34.124973 0 85.312432-29.859351 85.312432-85.312432v-482.015239c-4.265622-25.59373 4.265622-72.515567-34.124973-72.515567z m-183.421729 767.811886c0 98.109297-115.171783 170.624864-213.281079 170.624863s-213.281079-72.515567-213.281079-170.624863v-127.968648h426.562158v127.968648z m127.968648-213.28108h-682.499454v-469.218375h682.499454l12.796865-12.796864-12.796865 482.015239z m-298.593511-243.14043v-98.109297c0-25.59373-17.062486-42.656216-42.656216-42.656216s-42.656216 21.328108-42.656216 42.656216v98.109297c-25.59373 12.796865-42.656216 42.656216-42.656216 72.515567 0 46.921837 38.390594 85.312432 85.312432 85.312431s85.312432-38.390594 85.312432-85.312431c0-29.859351-17.062486-59.718702-42.656216-72.515567z"  horiz-adv-x="1024" />

    
    <glyph glyph-name="yonghu" unicode="&#59237;" d="M666.97142891 367.15714247999995c70.37142891-15.08571387 140.57142891-42.12857109 210.42857109-81A231.3 231.3 0 0 0 996.28571445 84.00000029V19.714286140000013a77.14285752 77.14285752 0 0 0-77.14285752-77.14285752H147.71428614A77.14285752 77.14285752 0 0 0 70.57142862 19.714286140000013v64.28571415a231.3 231.3 0 0 0 118.84285722 202.11428585c69.90000029 38.91428614 140.10000029 65.95714248 210.47142832 81.04285634a248.57142891 248.57142891 0 1 0 267.08571475 0zM533.42857109 396.85714248a180 180 0 1 1 0 360 180 180 0 0 1 0-360z m-394.28571357-312.85714219V19.714286140000013c0-4.71428613 3.85714248-8.57142862 8.57142861-8.57142862h771.4285708a8.57142862 8.57142862 0 0 1 8.57142862 8.57142862v64.28571415a162.72857109 162.72857109 0 0 1-83.61428555 142.2c-104.18571386 57.94285693-207.60000029 86.69999971-310.67142891 86.69999971-103.07142862 0-206.48571416-28.71428555-310.67142802-86.69999971A162.72857109 162.72857109 0 0 1 139.14285752 84.00000029z"  horiz-adv-x="1072" />

    
    <glyph glyph-name="kaishi" unicode="&#58913;" d="M704.336 858.752A512.192 512.192 0 0 0 512.336-128 512 512 0 0 0 320.336 858.752v-152a375.488 375.488 0 1 1 384 0V858.752zM448.336 896h128v-448H448.336V896z"  horiz-adv-x="1024" />

    
    <glyph glyph-name="zhire" unicode="&#58956;" d="M944.641024 366.513152 803.562496 366.513152C794.938368 366.513152 787.948544 373.504 787.948544 382.128128L787.948544 385.359872C787.948544 393.984 794.938368 400.974848 803.562496 400.974848L944.641024 400.974848C953.265152 400.974848 960.254976 393.984 960.254976 385.359872L960.254976 382.128128C960.254976 373.504 953.265152 366.513152 944.641024 366.513152ZM730.42432 577.545216C724.3264 571.447296 714.43968 571.447296 708.343808 577.545216L706.057216 579.831808C699.959296 585.92768 699.959296 595.8144 706.057216 601.91232L805.814272 701.6704C811.912192 707.76832 821.797888 707.76832 827.895808 701.6704L830.1824 699.383808C836.28032 693.286912 836.28032 683.400192 830.1824 677.303296L730.42432 577.545216ZM512.510976 193.898496C398.317568 193.898496 305.742848 286.473216 305.742848 400.667648 305.742848 514.864128 398.317568 607.4368 512.510976 607.4368 626.705408 607.4368 719.280128 514.864128 719.280128 400.667648 719.280128 286.473216 626.705408 193.898496 512.510976 193.898496ZM513.871872 659.436544 510.640128 659.436544C502.016 659.436544 495.025152 666.426368 495.025152 675.049472L495.025152 816.129024C495.025152 824.753152 502.016 831.744 510.640128 831.744L513.871872 831.744C522.496 831.744 529.486848 824.753152 529.486848 816.129024L529.486848 675.049472C529.486848 666.426368 522.496 659.436544 513.871872 659.436544ZM316.168192 577.545216C310.07232 571.447296 300.184576 571.447296 294.08768 577.545216L194.3296 677.303296C188.23168 683.400192 188.23168 693.286912 194.3296 699.383808L196.616192 701.6704C202.714112 707.76832 212.599808 707.76832 218.696704 701.6704L318.454784 601.91232C324.552704 595.8144 324.552704 585.92768 318.454784 579.831808L316.168192 577.545216ZM236.56448 385.359872 236.56448 382.128128C236.56448 373.504 229.573632 366.513152 220.949504 366.513152L79.869952 366.513152C71.246848 366.513152 64.257024 373.504 64.257024 382.128128L64.257024 385.359872C64.257024 393.984 71.246848 400.974848 79.869952 400.974848L220.949504 400.974848C229.573632 400.974848 236.56448 393.984 236.56448 385.359872ZM294.08768 189.942784C300.184576 196.040704 310.07232 196.040704 316.168192 189.942784L318.454784 187.656192C324.552704 181.56032 324.552704 171.672576 318.454784 165.57568L218.696704 65.8176C212.599808 59.71968 202.714112 59.71968 196.616192 65.8176L194.3296 68.104192C188.23168 74.202112 188.23168 84.087808 194.3296 90.185728L294.08768 189.942784ZM510.640128 108.051456 513.871872 108.051456C522.496 108.051456 529.486848 101.061632 529.486848 92.437504L529.486848-48.641024C529.486848-57.265152 522.496-64.256 513.871872-64.256L510.640128-64.256C502.016-64.256 495.025152-57.265152 495.025152-48.641024L495.025152 92.437504C495.025152 101.061632 502.016 108.051456 510.640128 108.051456ZM708.343808 189.942784C714.43968 196.040704 724.3264 196.040704 730.42432 189.942784L830.1824 90.185728C836.28032 84.087808 836.28032 74.202112 830.1824 68.104192L827.895808 65.8176C821.797888 59.71968 811.912192 59.71968 805.814272 65.8176L706.057216 165.57568C699.959296 171.672576 699.959296 181.56032 706.057216 187.656192L708.343808 189.942784Z"  horiz-adv-x="1024" />

    
    <glyph glyph-name="ai226" unicode="&#59094;" d="M435.73767 242.648298l54.765246-54.664962 195.557712 195.499384-195.557712 195.549526-54.765246-54.723291 101.692998-101.63467L158.029018 422.674284l0-78.324801 379.40165 0L435.73767 242.648298zM783.851765 735.497653 236.296515 735.497653c-43.036122 0-78.266473-35.173046-78.266473-78.149816l0-156.523736 78.266473 0 0 156.523736 547.55525 0 0-547.671907L236.296515 109.67593l0 156.465408-78.266473 0 0-156.465408c0-43.026913 35.231374-78.209168 78.266473-78.209168l547.55525 0c42.976771 0 78.208145 35.182255 78.208145 78.209168l0 547.671907C862.058886 700.324608 826.828535 735.497653 783.851765 735.497653"  horiz-adv-x="1024" />

    
    <glyph glyph-name="dikuai" unicode="&#59505;" d="M973.218909 430.545455h-372.363636L558.545455 896h372.363636l42.309818-465.454545z m-127.301818 372.363636H660.48l25.390545-279.272727h185.413819l-25.367273 279.272727z m135.773091-465.454546L1024-128H651.636364l-42.309819 465.454545h372.363637z m-85.015273-93.090909h-185.413818l25.367273-279.272727h185.437091l-25.390546 279.272727z m-482.373818 186.181819L380.439273 802.909091H178.106182L144.244364 430.545455h270.056727z m8.448-93.09091H135.796364L101.934545-34.909091h354.676364l-33.861818 372.363636zM465.454545 896l93.09091-1024H0L93.090909 896h372.363636z"  horiz-adv-x="1024" />

    
    <glyph glyph-name="ditu1" unicode="&#59228;" d="M930.909091 756.363636H407.272727C377.018182 837.818182 300.218182 896 209.454545 896 109.381818 896 23.272727 823.854545 4.654545 728.436364 2.327273 714.472727 0 700.509091 0 686.545455v-628.363637c0-102.4 83.781818-186.181818 186.181818-186.181818h744.727273c102.4 0 186.181818 83.781818 186.181818 186.181818V570.181818c0 102.4-83.781818 186.181818-186.181818 186.181818z m93.090909-186.181818v-337.454545l-283.927273 100.072727L826.181818 663.272727H930.909091c51.2 0 93.090909-41.890909 93.090909-93.090909z m-293.236364 93.090909L651.636364 360.72727299999997l-232.727273 81.454545V663.272727h311.854545zM93.090909 663.272727V686.545455c0 25.6 9.309091 51.2 23.272727 69.818181 20.945455 27.927273 53.527273 46.545455 93.090909 46.545455s72.145455-18.618182 93.09091-46.545455c13.963636-18.618182 23.272727-44.218182 23.272727-69.818181v-449.163637c-32.581818 23.272727-74.472727 34.909091-116.363637 34.909091s-83.781818-13.963636-116.363636-34.909091V663.272727z m837.818182-698.181818H186.181818c-51.2 0-93.090909 41.890909-93.090909 93.090909v6.981818c0 65.163636 51.2 116.363636 116.363636 116.363637s116.363636-51.2 116.363637-116.363637c0-25.6 20.945455-46.545455 46.545454-46.545454s46.545455 20.945455 46.545455 46.545454v279.272728l605.090909-211.781819V58.18181800000002c0-51.2-41.890909-93.090909-93.090909-93.090909z"  horiz-adv-x="1117" />

    
    <glyph glyph-name="chanpinteshuyongtushenqingliuchengjiehuojinxianAIyewu" unicode="&#58971;" d="M554.666667 214.058667v175.317333l149.333333 64v-175.36l-149.333333-64z m-234.666667 239.317333l149.333333-64v-175.36l-149.333333 64v175.36zM512 572.2453330000001l126.336-54.186666L512 463.957333 385.621333 518.058667 512 572.2453330000001z m275.626667-42.666666c-0.341333 1.28-0.938667 2.346667-1.408 3.541333a39.978667 39.978667 0 0 1-3.242667 6.954667c-0.725333 1.237333-1.621333 2.389333-2.474667 3.541333a41.685333 41.685333 0 0 1-8.234666 8.277333c-0.725333 0.554667-1.28 1.28-2.133334 1.792-1.322667 0.896-2.816 1.365333-4.224 2.133334-0.853333 0.426667-1.536 1.109333-2.432 1.493333l-234.666666 100.565333a42.624 42.624 0 0 1-33.621334 0l-234.666666-100.565333c-0.938667-0.426667-1.621333-1.109333-2.517334-1.536-1.408-0.725333-2.858667-1.194667-4.181333-2.090667-0.810667-0.512-1.365333-1.237333-2.133333-1.834666a38.613333 38.613333 0 0 1-8.192-8.234667c-0.853333-1.152-1.749333-2.304-2.517334-3.541333a39.978667 39.978667 0 0 1-3.242666-6.912c-0.426667-1.237333-1.024-2.346667-1.365334-3.584a42.368 42.368 0 0 1-1.706666-11.52v-268.16a42.666667 42.666667 0 0 1 25.856-39.210667l234.666666-100.565333c0.981333-0.426667 2.048-0.597333 3.072-0.981334A47.018667 47.018667 0 0 1 512 106.66666699999996a42.154667 42.154667 0 0 1 13.696 2.474666c1.024 0.384 2.133333 0.512 3.114667 0.981334l234.666666 100.565333a42.666667 42.666667 0 0 1 25.856 39.210667V518.1013330000001a42.368 42.368 0 0 1-1.706666 11.52zM941.056 574.4639999999999C967.808 514.346667 981.333333 450.304 981.333333 384c0-258.816-210.517333-469.333333-469.333333-469.333333S42.666667 125.18399999999997 42.666667 384 253.184 853.333333 512 853.333333c55.722667 0 110.336-9.685333 162.218667-28.8l-29.525334-80.085333A382.165333 382.165333 0 0 1 512 768c-211.754667 0-384-172.245333-384-384 0-211.712 172.245333-384 384-384 211.712 0 384 172.288 384 384 0 54.229333-11.093333 106.666667-32.896 155.818667l77.952 34.645333zM810.666667 746.666667a42.709333 42.709333 0 0 1 0-85.333334 42.709333 42.709333 0 0 1 0 85.333334z m0-170.666667c-70.613333 0-128 57.386667-128 128 0 70.570667 57.386667 128 128 128 70.570667 0 128-57.429333 128-128 0-70.613333-57.429333-128-128-128z"  horiz-adv-x="1024" />

    
    <glyph glyph-name="yuangongliebiao" unicode="&#58927;" d="M319.247 859.859h-126.494c-72.282 0-126.494-54.212-126.494-126.494v-698.729c0-72.282 54.212-126.494 126.494-126.494h632.471c72.282 0 126.494 54.212 126.494 126.494v698.729c0 72.282-54.212 126.494-126.494 126.494h-120.471v-60.235h120.471c36.141 0 66.259-30.118 66.259-66.259v-698.729c0-36.141-30.118-66.259-66.259-66.259h-632.471c-36.141 0-66.259 30.118-66.259 66.259v698.729c0 36.141 30.118 66.259 66.259 66.259h126.494v60.235zM385.506 799.624h252.988v60.235h-252.988zM512 323.765c84.329 0 156.612 72.282 156.612 156.612s-72.282 156.612-156.612 156.612-156.612-72.282-156.612-156.612 72.282-156.612 156.612-156.612zM512 384c-54.212 0-96.376 42.165-96.376 96.376s42.165 96.376 96.376 96.376 96.376-42.165 96.376-96.376-42.165-96.376-96.376-96.376zM734.871 161.129c0 120.471-96.376 222.871-222.871 222.871s-222.871-96.376-222.871-222.871h60.235c0 90.353 72.282 162.635 162.635 162.635s162.635-72.282 162.635-162.635h60.235z"  horiz-adv-x="1024" />

    
    <glyph glyph-name="duanxinyanzhengma" unicode="&#58912;" d="M512.672914 896C525.429029 885.613714 536.956343 874.232686 551.936 865.6896 634.645943 818.5856 796.818286 796.935314 921.6 808.228571 921.6 677.946514 919.200914 479.6416 919.200914 349.359543 919.200914 296.111543 928.036571 209.3056 911.7696 169.5744 876.192914 82.592914 780.960914 13.867886 706.911086-37.390629 665.629257-65.974857 622.474971-90.346057 572.094171-110.562743 555.914971-117.057829 529.700571-131.335314 506.294857-127.268571 395.761371-108.105143 235.666286 9.040457 176.186514 81.773714 151.844571 111.528229 122.002286 138.8544 109.304686 180.0192 96.899657 220.189257 105.0624 309.686857 105.0624 359.804343 105.0624 486.634057 102.4 681.428114 102.4 808.228571 236.895086 795.179886 456.469943 821.628343 512.672914 896ZM160.914286 749.714286C161.265371 593.276343 160.5632 350.266514 160.914286 193.828571 182.184229 127.678171 297.311086 59.333486 352.373029 21.152914 387.306057-3.072 422.999771-24.722286 464.896-42.627657 476.832914-47.7184 499.390171-63.166171 516.9152-59.333486 605.769143-39.965257 745.325714 61.615543 795.004343 122.528914 814.167771 146.0224 854.922971 160.299886 863.085714 193.828571 863.085714 349.564343 863.085714 593.978514 863.085714 749.714286 727.157029 748.017371 599.771429 766.976 512.672914 811.329829 445.410743 761.534171 281.102629 749.802057 160.914286 749.714286ZM741.931886 588.712229C768.380343 583.826286 788.8896 559.250286 769.550629 533.2992 696.32 461.531429 623.060114 389.7344 549.829486 317.966629 535.903086 304.274286 495.616 251.114057 468.085029 257.345829 448.043886 261.880686 434.205257 283.413943 421.390629 296.023771 388.125257 328.440686 354.859886 360.828343 321.594514 393.245257 310.8864 403.777829 292.103314 424.287086 305.678629 445.498514 313.9584 458.459429 337.364114 467.061029 354.5088 455.943314 394.474057 416.592457 434.468571 377.212343 474.463086 337.832229 557.231543 419.371886 640.058514 500.911543 722.826971 582.421943 729.205029 584.528457 735.583086 586.605714 741.931886 588.712229Z"  horiz-adv-x="1024" />

    
    <glyph glyph-name="leiranliaoyouzhix" unicode="&#59017;" d="M978.816 729.728h44.352v-99.712h-44.352m-12.352 27.008h30.016v45.184H966.4M154.24 676.736V823.04c0 1.792 0.448 3.456 1.216 4.928C168.96 865.472 347.904 895.168 566.592 895.168c226.048 0 409.536-31.744 411.968-71.04v-0.256l0.064-0.512V647.68l0.192-8.64v-656.448l-0.192 9.728a13.056 13.056 0 0 0 0.192-2.24c0-39.488-183.936-74.24-410.816-74.24-226.88 0-410.816 34.752-410.816 74.24 0 0.768 0.128 1.472 0.256 2.24l-3.008 9.728 0.64 146.816-1.28 15.808V673.92l0.512 2.816z m42.112-27.648v-447.168l1.216-13.824-0.64-128.96 2.688-8.512a11.392 11.392 0 0 1-0.192-1.92c0-34.752 163.136-64.256 364.352-64.256 201.216 0 364.352 29.504 364.352 64.192a11.52 11.52 0 0 1-0.192 1.92l0.192-8.512V618.432l-0.192 7.616V780.032v0.192 0.064V780.8v0.256c-2.24 34.56-164.928 62.336-365.44 62.336-193.92 0-352.64-26.048-364.608-59.008-0.64-1.28-1.024-2.688-1.024-6.72v-128.512h-0.512zM610.688 529.728c143.872 3.328 354.048 29.184 354.048 62.592v-272 8c-17.088-31.936-136.128-75.328-354.048-75.328l-23.552 1.344c-217.92 0-383.424 49.792-394.496 75.328v257.28c0-33.408 266.048-53.12 394.496-57.216h23.552z m-35.2-51.392c-116.288 2.816-357.12 22.528-357.12 45.312v-159.104c10.048-17.472 159.872-54.784 357.12-54.784h21.312c197.248 0 320.384 30.272 335.808 52.096v-5.44 165.888c0-22.784-205.568-41.664-335.808-43.968h-21.312zM189.056 199.68c-43.136 22.464-51.904 38.016-78.208 75.264l-4.672 11.648C25.984 409.6 66.048 559.104 192.64 644.8l-5.824 0.256v57.92L160 702.72v-24.064C92.544 638.4 42.944 581.76 18.112 515.264v-2.688C-12.352 431.36-2.112 345.28 46.72 270.272c33.6-51.456 82.624-93.504 142.272-122.88M964.736 770.112c-51.712-46.016-210.624-79.488-395.456-79.488-185.152 0-348.416 33.6-399.744 79.808v55.104c51.328-46.144 214.592-79.744 399.744-79.744 184.832 0 343.744 33.472 395.456 79.488v-55.168"  horiz-adv-x="1024" />

    
    <glyph glyph-name="jurassic_Oil-refineries" unicode="&#59007;" d="M960 602.1h-60.5c-9.1 33.4-32.6 62.1-68.5 82.6-30 17.1-67.6 28.1-105.8 31.1V832H242.6v-347.9L64 296.4V-64h423v3.1h59.5V108.39999999999998h291.2V-61h65.9V538.4H960v63.7z m-131.6 0H555.9c22.3 35.1 80.4 51.3 124.3 51.3l23-0.3h0.5c44 0 102.2-16.1 124.7-51zM659.2 768.4v-52.2c-38.3-3-76-14.1-106-31.4-35.8-20.6-59.3-49.3-68.4-82.8h-60.5v-63.6h56.3V303L308.4 484V768.4h350.8zM141.7 284l133.8 140.7L409.3 284H141.7z m404.8-111.9V338.4h291.2v-166.3H546.5zM837.8 402H546.5V538.4h291.2V402z"  horiz-adv-x="1024" />

    
    <glyph glyph-name="quanping" unicode="&#59273;" d="M218.688721 727.355045l-0.013303 0 0 0.014326L218.688721 727.355045l128.45665 0.556679c19.003819-0.508583 36.624129 13.658068 39.493479 37.807071L386.638851 791.80287c-0.474814 20.503986-16.169261 37.442774-35.158754 37.897122l-245.311055-1.561565c-0.37146 0.040932-0.605797 0.186242-0.935302 0.186242l-17.193591 0.412392c-9.494235 0.24764-18.012236-3.756557-24.087605-10.389628-6.151094-6.591115-8.428973-15.797801-8.18031-26.090215l1.843998-18.562774c0-0.37146-1.280156-0.61296-1.280156-1.025353l0.956791-265.449721c0.412392-20.454868 16.121166-32.736589 35.165918-33.190937l25.552979 0c19.003819-0.454348 34.092469 17.359366 33.665751 37.786605l-1.073448 144.370085 169.152515-179.211615c18.377556-19.84293 48.128137-19.84293 66.518996 0 18.329461 19.835767 18.329461 51.897997 0 71.755254L218.688721 727.355045zM948.293761-3.895471c-0.034792 0.460488 1.238201 0.722454 1.238201 1.073448l-0.014326 0.007163-0.977257 261.362636c-0.481977 20.441565-16.182564 32.67519-35.186384 33.128515l-24.163329 0.034792c-18.934235 0.467651-34.085306-17.385972-33.603329-37.849026l1.073448-141.253094L687.535899 292.983053c-18.405185 19.850094-48.106648 19.850094-66.49853 0-18.36323-19.835767-18.36323-51.897997 0-71.734788l169.104419-180.25027-128.297015-0.550539c-18.989493 0.454348-36.576033-12.115945-39.493479-36.273135l0-26.083052c0.481977-20.4958 16.237823-37.442774 35.17922-37.951357l242.160295 1.582031c0.391926 0 0.611937-0.164752 0.970094-0.164752l17.173125-0.454348c9.495258-0.240477 18.054191 3.76372 24.115234 10.417257 6.212492 6.529717 8.407484 15.763009 8.222265 26.062586L948.293761-3.895471zM386.225435 292.990217l-0.014326 0c-18.36323 19.84907-48.14144 19.84907-66.505693 0L150.561088 113.785765l1.086751 142.119835c0.413416 20.4958-14.675234 38.364773-33.610492 37.849026l-25.574469 0c-19.051915-0.509606-34.745339-12.68695-35.172057-33.183773l-0.99056-263.323291c0-0.37146 1.286296-0.61296 1.286296-1.025353l-1.843998-18.521842c-0.206708-10.299577 2.00875-19.540032 8.167007-26.062586 6.068206-6.653537 14.634302-10.657734 24.067138-10.416234l17.207917 0.454348c0.358157 0 0.578168 0.164752 0.970094 0.164752l245.290589-1.589195c18.989493 0.522909 34.71157 17.455557 35.172057 37.95852l0 26.076912c-2.862187 24.157189-20.482497 36.72032-39.438221 36.273135l-129.955794 0.454348 169.001065 180.24413C404.568199 241.029798 404.568199 273.154449 386.225435 292.990217zM941.984055 818.347432c-6.068206 6.632047-14.634302 10.637268-24.115234 10.354835l-17.152658-0.412392c-0.385786 0-0.61296-0.144286-0.99056-0.206708L654.063553 829.666222c-19.017122-0.474814-34.704406-17.414625-35.186384-37.910425l-0.048095-26.090215c2.917446-24.190959 20.565385-38.302351 39.486316-37.841863l130.368186-0.556679L621.181655 548.618245c-18.418488-19.75288-18.418488-51.815109-0.048095-71.6519l0-0.007163c18.377556-19.84293 48.093345-19.84293 66.491367 0l169.132048 180.327018-1.086751-145.471163c-0.461511-20.434401 14.696724-38.309514 33.617655-37.85619l24.163329 0c18.989493 0.522909 34.69008 12.756535 35.172057 33.197076l0.977257 265.512143c0 0.412392-1.258667 0.661056-1.258667 1.032516l1.851161 18.562774C950.391539 802.550655 948.183244 811.762457 941.984055 818.347432z"  horiz-adv-x="1024" />

    
    <glyph glyph-name="fangda" unicode="&#59109;" d="M849.7664 117.8624c1.9968-1.4848 3.84-3.072 5.632-4.864l72.3968-72.3968a51.2 51.2 0 1 0-72.3968-72.3968l-72.3968 72.3968a51.6096 51.6096 0 0 0-4.864 5.632 448 448 0 1 0 71.68 71.68zM460.8 435.2V537.6a51.2 51.2 0 1 0 102.4 0v-102.4h102.4a51.2 51.2 0 0 0 0-102.4h-102.4v-102.4a51.2 51.2 0 0 0-102.4 0v102.4H358.4a51.2 51.2 0 0 0 0 102.4h102.4z m38.4-384a345.6 345.6 0 1 1 0 691.2 345.6 345.6 0 0 1 0-691.2z"  horiz-adv-x="1024" />

    
    <glyph glyph-name="suoxiao" unicode="&#59114;" d="M849.7664 117.8624c1.9968-1.4848 3.84-3.072 5.632-4.864l72.3968-72.3968a51.2 51.2 0 1 0-72.3968-72.3968l-72.3968 72.3968a51.6096 51.6096 0 0 0-4.864 5.632 448 448 0 1 0 71.68 71.68zM499.2 51.2a345.6 345.6 0 1 1 0 691.2 345.6 345.6 0 0 1 0-691.2zM358.4 332.8a51.2 51.2 0 0 0 0 102.4h307.2a51.2 51.2 0 0 0 0-102.4H358.4z"  horiz-adv-x="1024" />

    
    <glyph glyph-name="yijiangoumai" unicode="&#58898;" d="M874.076432 249.016839c-8.984628 82.353636-198.799742 78.153988-274.676873 81.189114s-98.129948 15.916505-104.199177 31.092136c-1.553379 3.882424-3.139503 16.496719-4.640694 33.407877 73.571622 25.784246 126.479623 95.912443 126.479623 178.177052 0 104.07331-84.669378 188.742688-188.742688 188.742688-104.074334 0-188.744735-84.669378-188.744735-188.742688 0-83.392292 54.367235-154.315598 129.515772-179.214684 0.203638-91.410919 0.423649-194.204074 0.423649-209.754235 0-28.833699-10.870582-17.325597-15.934924-15.175631-68.548212 29.100782-172.120103 43.386136-245.474784 20.48659-37.96773-11.852956-29.698392-65.455781 7.398504-80.414471 20.018939-8.071839 45.195342-9.895371 66.202795-11.007705 49.771567-2.636037 67.920926-19.72832 106.618273-39.45664 51.623751-31.400151 110.464881-70.75446 156.000983-127.931694 35.665291-44.782949 59.171658-64.809051 82.547041-64.809051 68.902276 0 183.342702-8.527211 256.915347 2.006703 73.655534 10.546194 91.352591 162.465209 91.352591 162.465209S883.181811 165.550869 874.076432 249.016839zM307.08805 572.883017c0 66.833151 54.373375 121.204479 121.206526 121.204479 66.833151 0 121.204479-54.372352 121.204479-121.204479 0-46.056965-25.824155-86.194104-63.751976-106.699114-1.934049 35.848463-3.200902 68.880787-3.200902 76.868715 0 18.210757-7.587815 59.94323-59.183937 59.94323-56.908104 0-54.632271-61.460794-54.632271-61.460794s0.070608-30.754444 0.169869-74.27361C332.036255 488.073446 307.08805 527.617068 307.08805 572.883017z"  horiz-adv-x="1024" />

    
    <glyph glyph-name="rengongbuma" unicode="&#60110;" d="M618.666667 435.2l64-64-29.866667-72.533333-34.133333 34.133333v-140.8H554.666667v384h64v-140.8zM469.333333 337.066667v-145.066667H405.333333v132.266667l-42.666666-46.933334L341.333333 341.333333l93.866667 106.666667H341.333333V512h81.066667l-29.866667 29.866667 46.933334 46.933333 46.933333-46.933333-29.866667-29.866667H512v-64l-29.866667-34.133333 64-64-46.933333-46.933334-29.866667 34.133334zM213.333333 682.666667h597.333334v-597.333334H213.333333V682.666667z m85.333334-85.333334v-426.666666h426.666666V597.333333H298.666667z"  horiz-adv-x="1024" />

    
    <glyph glyph-name="xiangmupeizhi" unicode="&#58909;" d="M94.814815 745.415111h868.958815A60.22637 60.22637 0 0 0 1024 685.169778v-752.943408A60.22637 60.22637 0 0 0 963.77363-128H60.22637A60.22637 60.22637 0 0 0 0-67.77363V650.619259a94.814815 94.814815 0 0 0 94.814815 94.814815zM75.851852 896h467.740444c16.402963 0 32.388741-4.228741 45.511111-12.041481l13.084445-7.793778a37.925926 37.925926 0 0 0-19.399111-70.52326H30.113185A30.113185 30.113185 0 0 0 0 835.77363C0 869.034667 33.943704 896 75.851852 896z m672.047407-602.358519c0 7.054222-0.417185 13.975704-1.099852 20.916149l54.878815 41.851259c11.832889 9.064296 14.980741 25.543111 7.338667 38.343111l-58.538667 98.853926a31.535407 31.535407 0 0 1-38.343111 13.008593l-64.341333-25.239704a232.599704 232.599704 0 0 1-36.826074 20.897185l-9.765926 67.109926c-2.275556 14.506667-15.511704 25.448296-30.682074 25.448296h-117.077334c-15.36 0-28.292741-10.695111-30.72-25.694815l-9.728-66.863407c-12.894815-5.859556-25.220741-12.837926-36.864-20.897185l-64.474074 25.296592c-13.880889 5.214815-30.72-0.512-38.115555-13.084444l-58.538667-98.797037a29.430519 29.430519 0 0 1 7.528296-38.551704l54.65126-41.680592c-0.720593-6.959407-1.099852-13.937778-1.137778-20.916149 0-7.035259 0.436148-13.994667 1.137778-20.897185l-54.97363-41.870222a29.392593 29.392593 0 0 1-7.224889-38.305185l58.576593-98.910815c7.433481-12.515556 23.703704-18.545778 38.343111-12.951704l64.284444 25.239704c11.624296-8.059259 23.969185-15.03763 36.845037-20.859259l9.765926-67.166815c2.408296-14.753185 15.284148-25.448296 30.644148-25.448296h117.039408c15.17037 0 28.34963 10.922667 30.757926 25.694815l9.728 66.863407c12.894815 5.840593 25.220741 12.856889 36.826074 20.916148l64.474074-25.353481a31.706074 31.706074 0 0 1 38.21037 13.103407l58.405926 98.797037c7.661037 12.724148 4.721778 28.899556-7.452444 38.627556l-54.632297 41.623703c0.682667 6.921481 1.118815 13.842963 1.118815 20.897185zM407.684741 233.434074A120.471704 120.471704 0 1 0 616.296296 353.886815a120.471704 120.471704 0 0 0-208.649481-120.471704z"  horiz-adv-x="1024" />

    
    <glyph glyph-name="biaozhunguanli" unicode="&#58911;" d="M424.7 276.55c0 21.91 1.83 11.82-115.14 245.72-16.11 32.1-55.19 45.06-87.28 28.96a65.013 65.013 0 0 1-28.96-28.96C75.35 286.38 78.13 297.77 78.13 276.55c0-59.81 77.59-108.29 173.27-108.29s173.3 48.48 173.3 108.29zM251.41 493.16l97.46-194.94H153.95l97.46 194.94z m693.08-216.61c0 21.91 1.83 11.82-115.14 245.72-16.11 32.1-55.19 45.06-87.28 28.96a65.013 65.013 0 0 1-28.96-28.96C595.16 286.38 598 297.77 598 276.55c0-59.81 77.59-108.29 173.27-108.29s173.27 48.5 173.27 108.29h-0.05z m-270.73 21.62l97.46 194.94 97.46-194.94H673.76zM792.89 124.9H554.66V523.96a108.349 108.349 0 0 1 62.79 77.5h175.36c11.94 0 21.62 9.68 21.62 21.62v43.48c0 11.94-9.68 21.62-21.62 21.62H597.49c-35.35 47.58-102.58 57.5-150.16 22.15a107.157 107.157 0 0 1-22.15-22.15H229.76c-11.94 0-21.62-9.68-21.62-21.62v-43.24c0-11.94 9.68-21.62 21.62-21.62h175.36a108.408 108.408 0 0 1 62.89-77.74v-399.01H229.76c-11.94 0-21.62-9.68-21.62-21.62v-43.24c0-11.94 9.68-21.62 21.62-21.62h563.15c11.94 0 21.62 9.68 21.62 21.62v43.24c-0.01 11.93-9.69 21.6-21.62 21.6l-0.02-0.03z"  horiz-adv-x="1024" />

    
    <glyph glyph-name="paixu" unicode="&#59254;" d="M275.364-16.684l221.297 294.967h-144.27v431.244h-154.039v-431.244h-144.275l221.286-294.967zM571.899 709.119h393.898v-88.512h-393.898v88.512zM571.899 461.284h314.231v88.511h-314.231v-88.511zM571.899 301.964h234.567v88.513h-234.567v-88.513zM571.899 142.639h154.903v88.512h-154.903v-88.512zM571.899-16.684h75.236v88.512h-75.236v-88.512z"  horiz-adv-x="1024" />

    
    <glyph glyph-name="sort1" unicode="&#58992;" d="M908.88492373 133.06047147000004H528.0956416c-22.04412587 0-40.02174293-19.87925333-40.02174293-44.253184 0-24.36846933 17.9765248-44.24881493 40.02174293-44.24881494h380.78928213c22.0397568 0 40.02174293 19.87925333 40.02174294 44.24881494 0 24.3728384-17.98198613 44.253184-40.02174294 44.253184z m0 319.40826453H655.0224896c-22.0397568 0-40.0162816-19.70449067-40.0162816-44.24881493 0-24.36846933 17.9765248-44.2433536 40.0162816-44.2433536H908.886016c22.0397568 0 40.02174293 19.87488427 40.02174293 44.2433536-0.00109227 24.54432427-17.9830784 44.24881493-40.0228352 44.24881493zM515.588096 673.7117184h393.29682773c22.0397568 0 40.02174293 19.70449067 40.02174294 44.2433536 0 24.54869333-17.98198613 44.253184-40.02174294 44.253184H515.588096c-22.04412587 0-40.02174293-19.70449067-40.02174293-44.253184 0.00109227-24.53886293 17.97761707-44.2433536 40.02174293-44.2433536z m27.820032-211.22034347c15.78871467 17.29276587 15.78871467 45.46669227 0.31566507 62.92002134L344.41352533 748.03172693c-7.8086144 8.81349973-18.2878208 13.31254613-28.606464 13.31254614-10.16354133 0-20.48109227-4.32428373-28.295168-12.78825814l-0.1605632-0.17476266s-0.15510187 0-0.15510186-0.17476267l-200.39816534-220.7186944c-15.63252053-17.4620672-15.63252053-45.63708587 0.15510187-63.094784h0.00436907c15.62815147-17.45332907 41.7398784-17.45332907 57.5275008-0.1703936l130.68315306 143.80673707v-529.42056107c0-24.543232 17.81705387-44.41811627 40.0162816-44.41811627 22.18939733 0 40.0162816 19.87488427 40.01191254 44.41811627V610.45200213L486.8210688 462.839808c15.62924373-17.4522368 40.95890773-17.62699947 56.5870592-0.34843307z"  horiz-adv-x="1024" />

    
    <glyph glyph-name="jiankong" unicode="&#58954;" d="M832.679646 539.412389l-45.083186-78.612389-117.352212 234.59115c-6.683186 6.683186-20.162832 13.366372-33.529204 13.366372-6.683186 0-20.162832-6.683186-26.846017-20.162832L495.348673 413.79115l-99.341593 147.483186c-6.683186 6.683186-13.366372 13.366372-26.846018 13.366372-13.366372 0-20.162832 0-26.846018-6.683186l-90.619469-125.734513c-9.40177-13.139823-7.136283-31.376991 5.323894-41.571682 13.479646-11.100885 33.529204-8.722124 44.063717 5.21062l61.281416 81.670796 112.821239-167.646017c6.683186-6.683186 13.366372-13.366372 26.846017-13.366372h6.683186c13.366372 0 20.162832 6.683186 26.846018 20.162832L650.081416 608.283186l110.669026-221.338053c6.683186-6.683186 13.366372-13.366372 26.846018-13.366372 6.683186 0 20.162832 0 26.846018 6.683186l72.835398 127.886726c8.495575 15.065487 3.39823 34.095575-11.553982 42.704424-15.065487 8.835398-34.322124 3.624779-43.044248-11.440708zM1076.672566 299.497345c-8.155752 13.932743-17.784071 28.771681-28.658407 44.290266-12.913274 18.463717-26.732743 36.587611-40.892035 54.145132-4.644248 5.776991-9.175221 11.214159-13.479646 16.311505-1.132743 1.359292-2.152212 2.492035-3.058407 3.624779l-20.276106 23.221238-19.483186-22.315044c-5.776991-6.79646-11.667257-13.819469-17.217699-20.729203-14.159292-17.444248-27.978761-35.681416-40.892036-54.145133-10.874336-15.518584-20.615929-30.470796-28.658407-44.290266-22.654867-38.626549-33.755752-69.210619-33.755752-93.338053 0-78.838938 62.867257-143.065487 140.120354-143.065486S1110.315044 127.20708 1110.315044 206.159292c0 24.127434-10.987611 54.59823-33.642478 93.338053z m-106.477876-188.488495c-50.746903 0-92.092035 42.59115-92.092035 95.037168 0 8.495575 3.511504 28.884956 27.072566 69.097345 7.476106 12.686726 16.424779 26.506195 26.619469 41.00531 12.233628 17.330973 25.146903 34.435398 38.4 50.860177 13.366372-16.424779 26.279646-33.529204 38.4-50.860177 10.19469-14.499115 19.143363-28.318584 26.619469-41.00531 23.561062-40.212389 27.072566-60.488496 27.072567-69.097345 0.113274-52.332743-41.231858-95.037168-92.092036-95.037168zM970.19469 128.566372c-43.497345 0-78.838938 35.454867-78.838938 79.065486 0 43.723894 41.00531 21.522124 78.838938 0 38.060177-21.635398 78.838938 43.723894 78.838938 0 0-43.610619-35.228319-79.065487-78.838938-79.065486z m0 0M877.989381-4.19115H613.267257v66.265486h213.975221c10.421239 0 15.518584 12.573451 8.042478 19.823009-12.913274 12.573451-22.428319 28.318584-32.623009 46.442478H182.371681c-36.587611 0-66.265487 29.677876-66.265486 66.265487V724.955752c0 36.587611 29.677876 66.265487 66.265486 66.265487h795.41239c36.587611 0 66.265487-29.677876 66.265487-66.265487v-314.78938c0-2.60531 0.79292-4.984071 2.378761-7.136284 4.077876-5.550442 8.042478-11.100885 12.007079-16.764601 11.100885-15.858407 20.955752-31.037168 29.338053-45.19646 0.113274-0.113274 0.226549-0.339823 0.226549-0.453098 6.230088-10.534513 22.315044-6.230088 22.315044 6.00354V724.955752c0 72.948673-59.695575 132.530973-132.530973 132.530974H182.371681C109.536283 857.486726 49.840708 797.79115 49.840708 724.955752v-530.237168c0-72.948673 59.695575-132.530973 132.530973-132.530973h364.516815v-66.265487H282.279646c-18.576991 0-33.755752-15.065487-33.529204-33.642478 0.226549-19.59646 13.479646-32.623009 33.189381-32.623009h596.502655c19.709735 0 32.849558 13.026549 33.18938 32.623009 0.113274 18.463717-15.065487 33.529204-33.642477 33.529204z"  horiz-adv-x="1164" />

    
    <glyph glyph-name="ditu" unicode="&#59009;" d="M1020.654933 60.0576l-104.823466 332.3392a71.7824 71.7824 0 0 1-68.471467 50.193067h-81.237333c-53.1968-86.033067-127.505067-156.689067-176.9984-203.554134l-8.567467-8.123733a99.259733 99.259733 0 0 0-68.539733-27.374933 99.447467 99.447467 0 0 0-68.727467 27.511466l-9.949867 9.454934c-52.189867 49.476267-124.6208 118.408533-176.3328 202.0864H170.103467a71.7824 71.7824 0 0 1-68.7104-50.978134L3.1744 67.2768c-16.162133-53.367467 32.034133-103.970133 86.1184-90.453333l221.44 55.364266a71.7824 71.7824 0 0 0 60.757333-12.424533l175.581867-133.0176a71.765333 71.765333 0 0 1 61.4912-12.2368l361.762133 94.498133a71.7824 71.7824 0 0 1 50.3296 91.050667zM490.376533 280.507733c12.117333-11.537067 31.061333-11.605333 43.178667-0.085333 77.892267 73.984 229.034667 211.421867 229.034667 364.8C762.589867 783.633067 650.3936 895.829333 512 895.829333S261.410133 783.633067 261.410133 645.239467c0-153.890133 149.1968-288.8192 228.9664-364.731734zM512 739.310933a94.088533 94.088533 0 1 0 0-188.16 94.088533 94.088533 0 0 0 0 188.16z"  horiz-adv-x="1024" />

    
    <glyph glyph-name="canshu" unicode="&#58893;" d="M170.6752 896h682.6496A170.6752 170.6752 0 0 0 1024 725.3248v-682.6496A170.6752 170.6752 0 0 0 853.3248-128H170.6752A170.6752 170.6752 0 0 0 0 42.6752V725.3248A170.6752 170.6752 0 0 0 170.6752 896z m350.72-682.6752H195.0464a42.6752 42.6752 0 1 1 0-85.3248h326.2976a128 128 0 0 1 241.536 0h72.2432a42.6752 42.6752 0 1 1 0 85.3248H762.88a128 128 0 0 1-241.4336 0zM263.2704 640H192.5376a42.6752 42.6752 0 1 1 0-85.3248h70.7584a128 128 0 0 1 241.4336 0h327.68a42.6752 42.6752 0 0 1 0 85.3248h-327.68a128 128 0 0 1-241.4336 0z"  horiz-adv-x="1024" />

    
    <glyph glyph-name="shuju2" unicode="&#58926;" d="M39.936-112.12800000000004c-22.016 0-39.936 17.92-39.936 39.936V840.192c0 22.016 17.92 39.936 39.936 39.936s39.936-17.92 39.936-39.936v-548.864c25.6 43.008 54.784 78.336 87.04 105.472 38.912 32.768 80.896 49.152 124.416 49.152 94.208 0 170.496-76.288 207.872-121.856 34.304-41.984 85.504-69.12 130.56-69.12 32.256 0 59.904 12.8 82.944 38.4 45.056 50.688 59.392 121.344 72.704 189.952 1.536 8.192 3.072 16.384 5.12 24.576l0.512 2.56c23.552 114.176 52.736 256 193.536 262.656h2.56c24.576 0 36.352-19.456 36.864-37.376 0.512-20.48-12.8-41.472-38.4-43.008-89.088-4.608-111.104-135.68-128.512-240.64-6.656-38.4-12.288-71.68-19.968-95.232-30.72-88.576-103.424-183.296-215.552-183.296-19.456 0-39.936 3.072-59.904 9.216-44.032 12.8-82.432 53.248-119.296 92.672-43.52 46.08-89.088 94.208-141.824 94.208-18.944 0-37.888-5.632-57.856-17.92-94.72-57.344-139.776-183.808-161.28-280.064 0-0.512-0.512-1.536-0.512-2.048V-31.23199999999997h869.888c22.016 0 39.936-17.92 39.936-39.936s-17.92-39.936-39.936-39.936H39.936z"  horiz-adv-x="1057" />

    
    <glyph glyph-name="fenxi" unicode="&#59806;" d="M1002.496 339.456l-210.944 0.512c-11.264-3.072-23.04 3.584-26.112 15.36l-31.744 101.376-99.84-467.968s-2.048-24.576-15.36-24.576-35.84-0.512-35.84-0.512c-10.752-3.072-22.528 3.584-25.088 14.336L433.664 587.7760000000001l-93.696-440.832c-3.072-11.264-15.872-20.48-27.136-17.408l-33.28-0.512c-11.776-3.072-23.552 3.584-26.624 15.36l-62.464 195.072h-168.96c-11.776 0-21.504 9.728-21.504 21.504v42.496C0 415.232 9.728 424.96 21.504 424.96l209.92 0.512c12.8 0.512 23.552-1.024 26.624-12.288l32.768-101.376 91.648 478.72s4.608 14.336 19.456 14.336 45.568 0.512 45.568 0.512c11.264 3.072 22.528-3.584 25.088-14.848l122.88-605.696 90.624 435.2c3.072 10.752 11.776 20.48 22.528 17.408l36.352 0.512c11.264 3.072 23.04-3.584 26.112-15.36l62.464-198.144H1003.52c11.776 0 21.504-9.728 21.504-21.504v-42.496c-1.024-11.776-10.752-20.992-22.528-20.992z m0 0"  horiz-adv-x="1024" />

    
    <glyph glyph-name="NMStubiao" unicode="&#58918;" d="M524.271711 893.60552C736.582283 892.20874 897.810612 687.480688 817.395988 492.629867c-62.655564-151.949719-165.01959-287.736697-253.116505-428.611945-24.742961-39.708462-65.050044-32.125942-87.897375 3.09287-82.310255 127.106987-180.38417 248.527084-236.454914 386.808312C137.862478 704.8406689999999 308.269648 889.61472 524.271711 893.60552z m-15.963201-728.620352c9.478151-0.49885 18.956301-0.89793 28.434451-1.39678C600.196685 275.23102400000005 667.840749 384.57895 725.507812 499.114917c43.499723 86.600365 19.754461 174.89682-49.984773 242.141804-68.841304 66.446824-175.69498 80.414625-259.900865 34.021572-75.725434-41.703862-151.849949-137.882148-119.125386-232.464113 47.290983-136.984218 137.782378-252.817195 211.811722-377.829012zM157.118089-32.858753999999976h717.346342c-38.810532 57.367753-75.725434 104.159886-102.962646 156.040289-11.074471 21.051471-1.49655 52.778333-1.29701 79.716235 24.942501-8.979301 59.163613-10.475851 73.131414-28.234912 51.880403-65.149814 98.572766-134.789278 143.968119-204.728052 41.105242-63.054644 24.443651-96.677136-49.286383-96.976445-255.610755-1.39678-593.232454-1.29701-848.843209 0.49885-62.056944 0.29931-81.013245 35.717662-47.191213 88.994845 47.390753 74.827504 98.073916 147.659609 152.348799 217.598383 11.972401 15.364581 44.896503 14.566421 68.142914 21.151241 1.29701-24.842731 12.271711-54.973273 1.9954-73.630265-28.633992-52.279483-65.848204-99.770006-107.352527-160.430169zM523.972401 436.060273c-74.827504 0-135.687208 60.859704-135.687208 135.687208s60.859704 135.687208 135.687208 135.687208 135.687208-60.859704 135.687208-135.687208-60.859704-135.687208-135.687208-135.687208z m0 211.512413c-41.803632 0-75.825204-34.021572-75.825205-75.825205s34.021572-75.825204 75.825205-75.825204 75.825204 34.021572 75.825204 75.825204-34.021572 75.825204-75.825204 75.825205z"  horiz-adv-x="1024" />

    
    <glyph glyph-name="xiaofeiquan" unicode="&#59324;" d="M169.33057 286.9435c-4.479011 22.223141-6.886851 45.186132-6.886851 68.709895 0 140.152017 83.641979 260.879636 203.493647 315.65517-6.700609 12.817933-12.257162 26.294876-15.361873 40.835034-136.357598-60.934814-231.529167-197.48377-231.529167-356.490204 0-28.897144 3.362584-56.972573 9.315156-84.083024C141.222395 278.27712 154.742317 283.861302 169.33057 286.9435zM856.765161 355.653395c0-22.701025-2.346441-44.848441-6.5246-66.348104 14.82566-1.140986 29.061896-4.080945 42.509163-8.931416 4.762467 24.375154 7.41283 49.510624 7.41283 75.27952 0 159.003364-95.169523 295.555389-231.523027 356.487134-3.103688-14.540158-8.66024-28.0171-15.361873-40.835034C773.123182 616.529961 856.765161 495.802342 856.765161 355.653395zM509.60444 8.490627c-59.449997 0-115.426893 15.059997-164.396187 41.504276-7.084349-12.896728-15.371082-24.996301-25.546839-35.46063 56.248072-31.391964 120.952746-49.437969 189.943027-49.437969 75.042113 0 144.889925 21.535479 204.403367 58.219983-9.372461 11.083429-17.479093 23.185049-23.641443 36.516682C637.633349 27.488307 575.86761 8.490627 509.60444 8.490627zM511.917112 707.942927m-98.964966 0a96.711 96.711 0 1 0 197.929932 0 96.711 96.711 0 1 0-197.929932 0ZM161.40711 127.250428m-98.964966 0a96.711 96.711 0 1 0 197.929932 0 96.711 96.711 0 1 0-197.929932 0ZM860.915691 127.250428m-98.964966 0a96.711 96.711 0 1 0 197.929932 0 96.711 96.711 0 1 0-197.929932 0Z"  horiz-adv-x="1024" />

    
    <glyph glyph-name="zijinliuxiang" unicode="&#59235;" d="M512 896C228.693333 896 0 667.306667 0 384s228.693333-512 512-512 512 228.693333 512 512S795.306667 896 512 896z m0-54.613333c235.52 0 430.08-180.906667 453.973333-409.6-27.306667 34.133333-68.266667 75.093333-119.466666 78.506666-51.2 3.413333-95.573333-23.893333-139.946667-81.92-6.826667-6.826667-10.24-13.653333-17.066667-20.48-30.72-37.546667-61.44-51.2-88.746666-47.786666-37.546667 3.413333-71.68 51.2-78.506667 68.266666v3.413334c-40.96 58.026667-88.746667 88.746667-136.533333 92.16-47.786667 0-92.16-27.306667-133.12-81.92 0 0 0-3.413333-3.413334-3.413334-23.893333-34.133333-61.44-71.68-98.986666-68.266666-40.96 3.413333-71.68 51.2-81.92 68.266666l-10.24 10.24C88.746667 670.72 279.893333 841.386667 512 841.386667z m0-914.773334c-245.76 0-447.146667 194.56-457.386667 440.32 20.48-23.893333 51.2-44.373333 92.16-47.786666h10.24c47.786667 0 95.573333 30.72 139.946667 88.746666l3.413333 3.413334c30.72 40.96 58.026667 61.44 85.333334 61.44 37.546667 0 71.68-40.96 88.746666-64.853334 3.413333-3.413333 44.373333-88.746667 119.466667-95.573333h13.653333c40.96 0 81.92 23.893333 122.88 68.266667 6.826667 6.826667 13.653333 17.066667 20.48 23.893333 30.72 40.96 61.44 61.44 88.746667 58.026667 51.2-3.413333 98.986667-78.506667 112.64-109.226667 3.413333-6.826667 6.826667-10.24 13.653333-13.653333-20.48-232.106667-215.04-413.013333-453.973333-413.013334z"  horiz-adv-x="1024" />

    
    <glyph glyph-name="quanchangnengliutu" unicode="&#58902;" d="M940.194373 896h-811.867007C57.616368 896 0 838.383632 0 767.672634v-576.163683c0-70.710997 57.616368-128.327366 128.327366-128.327365h811.867007c70.710997 0 128.327366 57.616368 128.327366 128.327365v576.163683c2.618926 70.710997-54.997442 128.327366-128.327366 128.327366z m57.616369-704.491049c0-31.42711-26.189258-54.997442-54.997443-54.997442H130.946292c-31.42711 0-54.997442 26.189258-54.997443 54.997442v576.163683c0 31.42711 26.189258 54.997442 54.997443 54.997443h811.867007c31.42711 0 54.997442-26.189258 54.997443-54.997443v-576.163683zM906.148338-52.051151h-201.657289v20.951407c0 18.332481-13.094629 31.42711-31.42711 31.42711H377.12532c-18.332481 0-31.42711-13.094629-31.42711-31.42711v-20.951407H144.040921c-20.951407 0-36.664962-15.713555-36.664962-36.664962S123.089514-125.381074 144.040921-125.381074h762.107417c20.951407 0 36.664962 15.713555 36.664961 36.664961s-15.713555 36.664962-36.664961 36.664962zM879.959079 390.547315h-23.570332v73.329923c0 10.475703-7.856777 18.332481-18.332481 18.332481H570.925831v54.997442h28.808184c36.664962 0 68.092072 28.808184 68.092072 68.092072V699.580563c0 36.664962-28.808184 68.092072-68.092072 68.092071h-94.28133c-36.664962 0-68.092072-28.808184-68.092071-68.092071v-94.28133c0-36.664962 28.808184-68.092072 68.092071-68.092072h28.808185v-54.997442H264.511509c-10.475703 0-18.332481-7.856777-18.332481-18.332481v-73.329923h-20.951407c-31.42711 0-57.616368-26.189258-57.616368-57.616369v-81.1867c0-31.42711 26.189258-57.616368 57.616368-57.616369h81.186701c31.42711 0 57.616368 26.189258 57.616369 57.616369v81.1867c0 31.42711-26.189258 57.616368-57.616369 57.616369h-23.570332v54.997442h251.41688v-54.997442h-23.570333c-31.42711 0-57.616368-26.189258-57.616368-57.616369v-81.1867c0-31.42711 26.189258-57.616368 57.616368-57.616369h81.186701c31.42711 0 57.616368 26.189258 57.616368 57.616369v81.1867c0 31.42711-26.189258 57.616368-57.616368 57.616369h-23.570333v54.997442h251.41688v-54.997442h-23.570332c-31.42711 0-57.616368-26.189258-57.616369-57.616369v-81.1867c0-31.42711 26.189258-57.616368 57.616369-57.616369h81.1867c31.42711 0 57.616368 26.189258 57.616369 57.616369v81.1867c2.618926 31.42711-20.951407 57.616368-54.997443 57.616369z m-398.076726 214.751918V699.580563c0 13.094629 10.475703 26.189258 26.189258 26.189258H602.352941c13.094629 0 26.189258-10.475703 26.189258-26.189258v-94.28133c0-13.094629-10.475703-26.189258-26.189258-26.189259h-94.28133c-15.713555 0-26.189258 13.094629-26.189258 26.189259z m-154.516624-272.368287v-81.1867c0-13.094629-10.475703-20.951407-20.951407-20.951407H225.227621c-13.094629 0-20.951407 10.475703-20.951406 20.951407v81.1867c0 13.094629 10.475703 20.951407 20.951406 20.951407h81.186701c10.475703 2.618926 20.951407-7.856777 20.951407-20.951407z m288.081841 0v-81.1867c0-13.094629-10.475703-20.951407-20.951406-20.951407h-81.186701c-13.094629 0-20.951407 10.475703-20.951407 20.951407v81.1867c0 13.094629 10.475703 20.951407 20.951407 20.951407h81.186701c10.475703 2.618926 20.951407-7.856777 20.951406-20.951407z m288.081842-78.567775c0-13.094629-10.475703-20.951407-20.951407-20.951406h-81.186701c-13.094629 0-20.951407 10.475703-20.951406 20.951406v81.186701c0 13.094629 10.475703 20.951407 20.951406 20.951407h78.567775c13.094629 0 20.951407-10.475703 20.951407-20.951407v-81.186701z"  horiz-adv-x="1071" />

    
    <glyph glyph-name="zhiluyongdianbaobiao" unicode="&#58906;" d="M825.681013 896H198.318987C92.03038 896 6.481013 810.450633 6.481013 704.162025v-627.362025c0-103.696203 85.549367-191.837975 191.837974-191.837975h259.240507c20.739241 0 36.293671 15.55443 36.293671 36.293671s-15.55443 36.293671-36.293671 36.293671h-259.240507c-64.810127 0-119.250633 51.848101-119.250633 119.250633V704.162025c0 64.810127 51.848101 116.658228 119.250633 116.658228h627.362026c64.810127 0 119.250633-51.848101 119.250633-116.658228V377.518987c-20.739241 12.962025-46.663291 20.739241-75.179747 20.739241h-121.843038c-132.212658 0-241.093671-106.288608-241.093671-238.501266v-163.321519c0-67.402532 54.440506-121.843038 121.843038-121.843038h114.065823c150.359494 0 274.794937 124.435443 274.794936 274.794937V704.162025C1017.518987 810.450633 929.377215 896 825.681013 896z m-82.956962-948.820253H628.658228c-25.924051 0-49.255696 20.739241-49.255696 49.255696v163.321519c0 90.734177 75.179747 165.913924 165.913924 165.913924h121.843038c41.478481 0 75.179747-33.701266 75.179747-75.179747v-101.103797c0-111.473418-90.734177-202.207595-199.61519-202.207595zM817.903797 291.96962h-75.179746l-75.179747-176.283544h72.587342L690.875949-37.265823l165.913924 215.16962h-88.141772zM442.005063 416.405063c20.739241 0 38.886076 18.146835 38.886076 38.886076l191.837975 114.065823c15.55443-15.55443 38.886076-25.924051 64.810127-25.924051 51.848101 0 93.326582 41.478481 93.326582 93.326583s-41.478481 93.326582-93.326582 93.326582S644.212658 688.607595 644.212658 636.759494c0-15.55443 5.18481-31.108861 10.36962-44.070886L473.113924 481.21519c-7.777215 7.777215-18.146835 15.55443-31.108861 15.55443-5.18481 0-10.36962-2.592405-15.55443-2.592405l-142.582279 129.620253c7.777215 12.962025 12.962025 25.924051 12.962026 41.478481 0 41.478481-33.701266 72.587342-72.587342 72.587342S149.063291 704.162025 149.063291 665.275949s33.701266-72.587342 72.587342-72.587341c15.55443 0 28.516456 5.18481 41.478481 12.962025l142.582278-129.620253c-2.592405-5.18481-2.592405-10.36962-2.592405-15.554431 0-12.962025 5.18481-23.331646 12.962026-31.10886l-54.440507-155.544304c-10.36962 2.592405-20.739241 5.18481-33.701265 5.18481-72.587342 0-129.620253-57.032911-129.620254-129.620253s57.032911-129.620253 129.620254-129.620253 129.620253 57.032911 129.620253 129.620253c0 49.255696-28.516456 93.326582-69.994937 114.065823l54.440506 152.951898zM740.131646 691.2c31.108861 0 57.032911-25.924051 57.032911-57.032911 0-31.108861-25.924051-57.032911-57.032911-57.032912-31.108861 0-57.032911 25.924051-57.032912 57.032912 2.592405 31.108861 25.924051 57.032911 57.032912 57.032911z m-412.192405-622.177215c-44.070886 0-80.364557 36.293671-80.364557 80.364557 0 44.070886 36.293671 80.364557 80.364557 80.364557s80.364557-36.293671 80.364556-80.364557c0-44.070886-36.293671-80.364557-80.364556-80.364557z m114.065822 399.23038c7.777215 0 12.962025-5.18481 12.962026-12.962026s-5.18481-12.962025-12.962026-12.962025-12.962025 5.18481-12.962025 12.962025c2.592405 7.777215 7.777215 12.962025 12.962025 12.962026zM187.949367 665.275949c0 20.739241 15.55443 36.293671 36.293671 36.293671 20.739241 0 36.293671-15.55443 36.293671-36.293671s-15.55443-36.293671-36.293671-36.293671c-20.739241 0-36.293671 15.55443-36.293671 36.293671z"  horiz-adv-x="1024" />

    
    <glyph glyph-name="haodianzongliang" unicode="&#58955;" d="M711.8-62.1c-13.6 5.6-20.7 20.6-16.5 34.6l43 141.5h-78.9c-7.9 0-15.3 3.7-20 10-5 6.6-6.4 15.2-3.8 23l82.2 187.6c6.8 18.2 22.7 31.8 43.2 31.8 0 0 104.2-0.7 117.1-1.6 21.5-1.5 33.4-25.6 21.5-43.7-5-7.6-65.8-91.2-65.8-91.2h91c8.3 0 15.9-4.5 19.9-11.8 4.4-8 3.5-17.9-2.2-25L744.8-53.6c-7.9-9.8-21.3-13.3-33-8.5z m-3 223.9M631.3-57.7H158.1c-47.3 0-83.4 38.9-83.4 89V742.8c0 50 38.9 88.9 83.4 88.9h667.1c47.3 0 83.4-38.9 83.4-88.9v-312.4c0-16.7-11.1-27.8-27.8-27.8-16.7 0-27.8 11.1-27.8 27.8V742.8c0 19.5-13.9 33.4-27.8 33.4H158.1c-13.9 0-27.8-13.9-27.8-33.4v-711.6c0-19.5 13.9-33.4 27.8-33.4h473.2c16.7 0 27.8-11.1 27.8-27.8 0-16.6-11.1-27.7-27.8-27.7z m0 0M761 512h-67.1l-33.6 67.2c-3.7 8.7-13.1 14.3-23.8 14.3-10.9 0-20-5.5-23.6-14l-80.1-160.1-121.5 242.8c-3.8 8.8-12.9 14.3-23.8 14.3s-20-5.5-23.7-14L288.6 512h-67.1c-15.5 0-26.4-10.8-26.4-26.3s10.8-26.4 26.4-26.4h83c10.4 0 18.6 5.4 23.7 15.6l59.3 118.6 121.9-243.7c6.5-9.8 14.6-14.9 23.3-14.9 10.4 0 18.6 5.4 23.7 15.6l80.1 160.1 18.2-36.3c6.5-9.8 14.6-14.9 23.3-14.9h83c15.5 0 26.3 10.8 26.3 26.4 0.1 15.4-10.8 26.2-26.3 26.2zM571 258.8H237.7c-11.9 0-23.8-11.9-23.8-23.8s11.9-23.8 23.8-23.8H571c11.9 0 23.8 11.9 23.8 23.8s-11.9 23.8-23.8 23.8zM386.8 124.6H244c-11.9 0-23.8-9.5-23.8-23.8 0-11.9 11.9-23.8 23.8-23.8h142.8c11.9 0 23.8 11.9 23.8 23.8 0 14.2-11.9 23.8-23.8 23.8z"  horiz-adv-x="1024" />

    
    <glyph glyph-name="tongjizhouqi" unicode="&#58969;" d="M422.4 569.4v-99.7c0-1.6 0.6-3.1 1.8-4.2 2.2-2.2 59.9-60.6 60.5-61.1 1.1-1.1 2.7-1.8 4.2-1.8 1.6 0 3.1 0.6 4.3 1.8l23.1 23.1c2.3 2.3 2.3 6.1 0 8.5L467 485.1v84.3c0 12.3-10 22.3-22.3 22.3s-22.3-10-22.3-22.3zM666.8 477.2l-60.6 60.4c-2.3 2.3-6.1 2.3-8.5 0l-60.4-60.4c-2.3-2.3-2.3-6.1 0-8.5l21.9-21.9c2.3-2.3 6.1-2.3 8.5 0l8 7.9c-16.6-59-71-101.4-133.8-101.4-76.6 0-139 62.3-139 139 0 72.1 55.2 131.5 125.5 138.3 11 1.1 19.5 10.3 19.5 21.4 0 12.7-10.9 22.6-23.5 21.4-92.1-8.9-164.4-86.7-164.4-181.1 0-100.3 81.6-181.9 181.9-181.9 45.4 0 88.9 16.9 122.5 47.5 30.3 27.6 50.2 64.3 56.9 104.2l15.2-15.2c2.3-2.3 6.1-2.3 8.5 0l21.9 21.9c0.4 0.4 0.8 0.9 1.1 1.5 1.1 2.3 0.6 5.1-1.2 6.9zM783 389.8h0.4-0.4zM686.4 31.4H211.8c-13.6 0-24.9-13.6-24.9-31.6 0-18.1 11.3-31.6 24.9-31.6h474.5c13.6 0 24.9 13.6 24.9 31.6 0 15.8-11.3 31.6-24.8 31.6z m-60.2 203.4H155.3c-18.1 0-31.6 15.8-31.6 33.9V700.3c0 18.1 13.6 33.9 31.6 33.9h702.8c18.1 0 31.6-15.8 31.6-33.9v-232l61-1.7V700.3c0 54.2-40.7 97.2-92.6 97.2H155.3c-52 0-92.6-42.9-92.6-97.2v-431.6c0-54.2 40.7-97.2 92.6-97.2h471.3l-0.4 63.3zM903.7 405c0 13.3 10.8 24.1 24.1 24.1s24.1-10.8 24.1-24.1v-207.8c0-13.3-10.8-24.1-24.1-24.1s-24.1 10.8-24.1 24.1V405z m0-207.8M823.2 308.3c0 13.3 10.8 24.1 24.1 24.1s24.1-10.8 24.1-24.1v-111.1c0-13.3-10.8-24.1-24.1-24.1s-24.1 10.8-24.1 24.1V308.3z m0-111.1M742.8 367.7c0 13.3 10.8 24.1 24.1 24.1S791 381 791 367.7v-170.4c0-13.3-10.8-24.1-24.1-24.1s-24.1 10.8-24.1 24.1V367.7z m0-170.5M662.3 328.7c0 13.3 10.8 24.1 24.1 24.1s24.1-10.8 24.1-24.1v-131.4c0-13.3-10.8-24.1-24.1-24.1s-24.1 10.8-24.1 24.1V328.7z m0-131.5"  horiz-adv-x="1024" />

    
    <glyph glyph-name="peidiangui" unicode="&#58998;" d="M662.905263 316.631579c0 2.694737 0 2.694737-2.694737 5.389474v2.694736l-2.694737 2.694737s0 2.694737-2.694736 2.694737h-2.694737-2.694737-2.694737-2.694737l-56.589473-8.08421 21.557894 118.568421v5.389473s0 2.694737-2.694737 2.694737c0 0 0 2.694737-2.694736 2.694737 0 2.694737-2.694737 2.694737-5.389474 5.389474h-2.694737c-2.694737 8.084211-2.694737 8.084211-5.389474 8.08421-8.084211 0-13.473684-2.694737-18.863157-8.08421l-137.431579-212.884211v-2.694737s0-2.694737-2.694737-2.694736V230.4s0-2.694737 2.694737-2.694737c0 0 0-2.694737 2.694736-2.694737l2.694737-2.694737h13.473684l56.589474 8.084211-21.557895-118.568421v-8.084211s0-2.694737 2.694737-2.694736c0 0 0-2.694737 2.694737-2.694737 0-2.694737 2.694737-2.694737 5.389474-5.389474 2.694737 0 5.389474-2.694737 5.389473-2.694737h2.694737c2.694737 0 5.389474 0 8.084211 2.694737h2.694737c2.694737 0 2.694737 2.694737 5.389473 5.389474l137.431579 212.88421v2.694737s0 2.694737 2.694737 2.694737v2.694737-2.694737z m-113.178947-70.063158V249.263158v2.694737s0 2.694737-2.694737 2.694737c0 0 0 2.694737-2.694737 2.694736l-2.694737 2.694737s-2.694737 0-2.694737 2.694737c0 0-2.694737 0-2.694736 2.694737h-2.694737-2.694737l-40.421053-5.389474 64.673684 99.705263-10.778947-53.894736V297.768421s0-2.694737 2.694737-2.694737c0 0 0-2.694737 2.694737-2.694737l2.694737-2.694736s2.694737 0 2.694736-2.694737c0 0 2.694737 0 2.694737-2.694737H565.894737l40.421052 5.389474-67.368421-99.705264 10.778948 53.894737v2.694737zM722.189474 718.147368H369.178947c-26.947368 0-48.505263-21.557895-48.505263-48.505263v-67.368421c0-26.947368 21.557895-48.505263 48.505263-48.505263h353.010527c26.947368 0 48.505263 21.557895 48.505263 48.505263V669.642105c0 26.947368-21.557895 48.505263-48.505263 48.505263z m0-123.957894H369.178947c-5.389474 0-10.778947 5.389474-10.778947 10.778947V669.642105c0 5.389474 5.389474 10.778947 10.778947 10.778948h353.010527c5.389474 0 10.778947-5.389474 10.778947-10.778948v-67.368421c0-5.389474-5.389474-8.084211-10.778947-8.08421zM808.421053 860.968421H285.642105C242.526316 860.968421 207.494737 825.936842 207.494737 785.515789v-45.810526h-8.084211c-32.336842 0-59.284211-26.947368-59.28421-59.28421v-80.842106c0-32.336842 26.947368-59.284211 59.28421-59.28421h10.778948v-312.589474h-10.778948c-32.336842 0-59.284211-26.947368-59.28421-59.28421v-80.842106c0-32.336842 26.947368-59.284211 59.28421-59.28421h10.778948v-45.810526c0-43.115789 35.031579-75.452632 75.452631-75.452632H808.421053c43.115789 0 75.452632 35.031579 75.452631 75.452632V785.515789c0 40.421053-35.031579 75.452632-75.452631 75.452632zM177.852632 680.421053c0 10.778947 10.778947 21.557895 21.557894 21.557894h10.778948v-123.957894h-10.778948c-10.778947 0-21.557895 10.778947-21.557894 21.557894V680.421053z m0-512c0 10.778947 10.778947 21.557895 21.557894 21.557894h10.778948v-123.957894h-10.778948c-10.778947 0-21.557895 10.778947-21.557894 21.557894v80.842106z m668.294736-185.936842c0-21.557895-16.168421-37.726316-37.726315-37.726316H285.642105c-21.557895 0-37.726316 16.168421-37.726316 37.726316V785.515789c0 21.557895 16.168421 37.726316 37.726316 37.726316H808.421053c21.557895 0 37.726316-16.168421 37.726315-37.726316v-803.031578z"  horiz-adv-x="1024" />

    
    <glyph glyph-name="zhongzhi" unicode="&#58892;" d="M512.034377 896a512 512 0 0 0 296.813714-929.206857l-87.113142 117.540571a365.714286 365.714286 0 1 1-426.569143 5.12l84.041143 109.348572L512.034377-128H128.034377l77.970286 101.595429-10.971429 8.338285A512 512 0 0 0 512.034377 896z"  horiz-adv-x="1024" />

    
    <glyph glyph-name="wuranwupaifang" unicode="&#58953;" d="M297.2 592.9c5.2 0 10.5 0.6 16.4 1.7 7.9-21.2 27.8-35.2 50.6-35.2 14.5 0 28.3 5.9 38.6 16.4 12.8-10.6 28.7-16.4 45.2-16.4 26.8 0 50.9 14.8 63 38.2 23-24.4 54.6-38.2 87.7-38.2 40.9 0 78.2 20.3 100.7 54.5 13.3-13.4 31.3-21 50-21 24.5 0 47.4 13 60.3 34.1 2.1-0.3 4.3-0.6 6.7-0.6 56.9 0 101.5 45.9 101.5 104.6 0 58.6-44.6 104.6-101.5 104.6-57.7 0-104.6-46.9-104.6-104.6 0-2.1 0.3-4 0.5-5.8 0-0.3 0.1-0.6 0.1-0.8-0.3-0.2-0.6-0.4-0.9-0.5-17.9 47-62.6 78.2-112.8 78.2-35.7 0-69-15.6-92.2-43.1-15.8 26.8-44.1 43.1-75.3 43.1-34.5 0-66-20.8-80-52.3-15.5 12.2-34.4 18.8-54 18.8-48.4 0-87.8-39.4-87.8-87.8s39.4-87.9 87.8-87.9z m0.2 134.1c14.1 0 24.4-6.5 30.6-11.9 6.9-6.2 15.8-9.6 25.1-9.6 3.1 0 6.1 0.4 9.1 1.1 12.1 3.1 21.9 11.8 26.2 23.5 6.6 18.2 23.9 30.4 43 30.4 17.4 0 33-9.8 41-25.7 5.9-11.6 17.2-19.3 30-20.5 1.3-0.1 2.4-0.1 3.6-0.1 11.7 0 22.9 5.5 29.9 14.7 15.4 20.1 38.3 31.7 63 31.7 34.1 0 64.3-22 75.1-54.7 3.8-11.6 12.7-20.4 24.4-24.1 12.1-3.6 24.3-1.3 33.6 5.7 0.8 0.6 1.7 1.1 2.7 1.7l0.6 0.3c12.8 7.2 20.3 21.4 19.1 36-0.1 1.8-0.3 3.4-0.8 5.9 0.2 34.5 28.3 62.6 62.9 62.6 33.6 0 59.9-27.6 59.9-62.9 0-35.2-26.6-62.7-60.5-62.7h-0.4c-1.5 0.2-2.9 0.4-4.4 0.5-1.2 0.1-2.3 0.1-3.3 0.1-13.5 0-26.1-7.3-32.7-19.1-5.4-9.6-14.9-15.3-25.4-15.3-11.5 0-18.8 6.6-22.1 10.5-7.1 8.3-17.5 13.1-28.5 13.1-1 0-2.1 0-3.4-0.3-11.8-1.1-22.6-7.8-28.8-18-14.6-24.3-40-38.8-67.9-38.8-22.9 0-44.9 10.3-60.3 28.4-7.2 8.4-17.6 13.2-28.5 13.2-2.2 0-4.2-0.2-5.9-0.5-13.1-2.1-23.9-10.6-28.9-22.8-4.5-11-15.2-18.2-27.2-18.2-7.4 0-14.1 2.7-19.9 8-7 6.5-16.1 10-25.6 10-0.7 0-1.5 0-2.4-0.1-10.2-0.7-19.7-5.5-26.2-13.2-1.5-1.7-4.7-4.7-9.5-4.7-6.4 0-10.6 4.5-11.9 9.1-4.7 15.8-19.4 26.8-35.9 26.8-3.2 0-6.1-0.3-8.6-1-4.2-1-7.6-1.4-10.5-1.4-25.4 0-46.1 20.7-46.1 46.2-0.3 25.5 20.4 46.1 45.8 46.1zM906.5 40.4h-37.4V215.5c0 9.5-7.7 17.2-17.2 17.2H543.3l-48.2 192.8h40.2c9.5 0 17.2 7.7 17.2 17.2V517c0 9.5-7.7 17.2-17.2 17.2H193.1c-9.5 0-17.2-7.7-17.2-17.2v-74.3c0-9.5 7.7-17.2 17.2-17.2h43.1l-81.4-385.1h-35.9c-9.1 0-16.5-7.4-16.5-16.5v-67.5c0-9.1 7.4-16.5 16.5-16.5h787.6c9.1 0 16.5 7.4 16.5 16.5v67.5c0 9.1-7.3 16.5-16.5 16.5z m-622 422l0.8 4.8h-67.8v25.3h293.3v-25.3h-69.2l68.9-276.1h316.9v-150.7h-631l88.1 422zM742 93H597.5c-8.7 0-15.7 7.1-15.7 15.7v11.5c0 8.7 7.1 15.7 15.7 15.7H742c8.7 0 15.7-7.1 15.7-15.7v-11.5c0-8.6-7-15.7-15.7-15.7z"  horiz-adv-x="1024" />

    
    <glyph glyph-name="chanxianzhineng" unicode="&#58924;" d="M672 224c-89.6 0-160 70.4-160 160s70.4 160 160 160 160-70.4 160-160-70.4-160-160-160z m0 64c54.4 0 96 41.6 96 96s-41.6 96-96 96-96-41.6-96-96 41.6-96 96-96zM518.4 627.2l35.2-51.2c-208-144-323.2-224-348.8-240C176 320 160 288 160 256c0-54.4 41.6-96 96-96h419.2v-64H256c-89.6 0-160 70.4-160 160 0 54.4 28.8 105.6 73.6 134.4 25.6 16 140.8 96 348.8 236.8zM672 96v64c124.8 0 224 99.2 224 224s-99.2 224-224 224c-44.8 0-83.2-12.8-121.6-35.2l-35.2 54.4C563.2 656 617.6 672 672 672c160 0 288-128 288-288s-128-288-288-288zM256 256m-32 0a32 32 0 1 1 64 0 32 32 0 1 1-64 0Z"  horiz-adv-x="1024" />

    
    <glyph glyph-name="dianbiao_shiti" unicode="&#60577;" d="M128 832h768a32 32 0 0 0 32-32v-832a32 32 0 0 0-32-32H128a32 32 0 0 0-32 32V800a32 32 0 0 0 32 32z m342.016-416L352 234.304l160-44-82.88-183.872L672 253.088l-160 26.176L605.12 416h-135.104zM864 764.16L160 764.48V512h704V764.16zM296 704h64v-128h-64V704z m192 0h64v-128h-64V704z m192 0h64v-128h-64V704z"  horiz-adv-x="1024" />

    
    <glyph glyph-name="fanhui1" unicode="&#58896;" d="M538.622846-54.291255c257.534448 171.658591 308.738643 462.119963-75.504648 453.027887l0-225.514173L121.893676 514.470517 463.118198 855.718575l0-220.701564c218.259956 5.67321 470.02705-96.270601 470.02705-280.69596C933.146271 82.880895 768.337691 21.237953 538.622846-54.291255"  horiz-adv-x="1024" />

    
    <glyph glyph-name="guanbi" unicode="&#58889;" d="M583.168 372.224L958.464 747.52c18.944 18.944 18.944 50.176 0 69.12l-2.048 2.048c-18.944 18.944-50.176 18.944-69.12 0L512 442.88 136.704 818.688c-18.944 18.944-50.176 18.944-69.12 0l-2.048-2.048c-19.456-18.944-19.456-50.176 0-69.12l375.296-375.296L65.536-3.072c-18.944-18.944-18.944-50.176 0-69.12l2.048-2.048c18.944-18.944 50.176-18.944 69.12 0L512 301.056 887.296-74.24c18.944-18.944 50.176-18.944 69.12 0l2.048 2.048c18.944 18.944 18.944 50.176 0 69.12L583.168 372.224z"  horiz-adv-x="1024" />

    
    <glyph glyph-name="uploading" unicode="&#58917;" d="M49.6-90.2C22.8-90.1 1-68.4 1-41.5c0.2 1.2 0.5 2.4 0.9 3.5 0.5 1.9 1 3.7 1.4 5.6l3.8 18.8-1.3 0.3L69 310.2l5 18.2c4 22.5 23.4 39.1 46.3 39.3 26.8 0 48.6-21.8 48.6-48.6 0-0.5-0.5-2.3-0.9-3.5-0.5-1.8-1-3.7-1.4-5.6l-3.8-19 1.3-0.3-55.3-283.4h808.4l-55.3 283.4h0.1l-2.6 19.5c-0.4 1.8-0.9 3.7-1.4 5.5-0.4 1.2-0.7 2.5-0.9 3.7 0.1 26.8 21.8 48.5 48.6 48.5 22.9-0.2 42.4-16.7 46.3-39.3l3.9-19.2 1.3 0.3 63.1-322.7h-0.1l2.6-19.3c0.4-1.8 0.8-3.5 1.3-5.3 0.4-1.2 0.7-2.5 0.9-3.7 0-12.9-5.1-25.3-14.2-34.4-9.1-9.1-21.5-14.2-34.4-14.3H49.6z m271.8 226.9c-17.4 0-33.4 9.3-42.1 24.3-8.7 15-8.7 33.5 0 48.6 8.7 15 24.7 24.3 42.1 24.3h383.4c17.3 0 33.4-9.3 42.1-24.3 8.7-15 8.7-33.5 0-48.6-8.7-15-24.7-24.3-42.1-24.3H321.4zM513 342.1c-26.8 0-48.5 21.7-48.6 48.5V689.4L339 564c-19.1-18.4-49.4-18.2-68.2 0.6-18.7 18.8-19 49.1-0.5 68.2L478.7 841.1c19 18.9 49.7 18.9 68.7 0l208.4-208.4c18.8-19 18.7-49.6-0.2-68.5s-49.5-19-68.5-0.3L561.6 689.4v-298.9c0-26.7-21.8-48.4-48.6-48.4z m0 0"  horiz-adv-x="1025" />

    
    <glyph glyph-name="daoru" unicode="&#59204;" d="M135.63636347 395.65909131v-309.19090957c0-43.52727305 35.30454521-78.83181826 78.83181827-78.83181827h595.06363652a78.83181826 78.83181826 0 0 1 78.83181826 78.83181827V681.53181826A78.83181826 78.83181826 0 0 1 809.53181826 760.36363653h-284.27727305a32.72727305 32.72727305 0 0 0 0 65.45454521h284.27727305A144.28636348 144.28636348 0 0 0 953.81818174 681.53181826v-595.06363652a144.28636348 144.28636348 0 0 0-144.28636348-144.28636348H214.46818174A144.28636348 144.28636348 0 0 0 70.18181826 86.46818173999998v309.19090957a32.72727305 32.72727305 0 1 0 65.45454522 0zM101.15 719.4954547899999l15.13636347-0.81818174a423.9 423.9 0 0 0 396.24545479-358.56818174 32.72727305 32.72727305 0 0 1 64.67727305 9.98181738A489.35454521 489.35454521 0 0 1 119.84545479 784.05l-15.17727305 0.81818174A32.72727305 32.72727305 0 0 1 101.15 719.45454521zM542.96818174 370.45909130999996l-139.90909043 76.45909043a32.72727305 32.72727305 0 0 1-31.37727305-57.43636348l149.89090869-81.94090957a53.18181826 53.18181826 0 0 1 70.15909131 17.79545479l93.68181827 144.81818173a32.72727305 32.72727305 0 0 1-54.98181827 35.59090958l-87.46363652-135.28636348z"  horiz-adv-x="1024" />

    
    <glyph glyph-name="Shapecopy" unicode="&#58886;" d="M1080.888889-128H56.888889a56.888889 56.888889 0 0 0-56.888889 56.888889V213.333333h113.777778v-227.555555h910.222222v227.555555h113.777778v-284.444444a56.888889 56.888889 0 0 0-56.888889-56.888889z m-187.335111 665.998222a56.888889 56.888889 0 0 1-80.440889 0L625.777778 350.663111V839.111111a56.888889 56.888889 0 1 1-113.777778 0v-488.448l-187.335111 187.335111a56.888889 56.888889 0 0 1-80.440889-80.440889l284.444444-284.444444a56.888889 56.888889 0 0 1 80.554667 0l284.444445 284.444444a56.888889 56.888889 0 0 1-0.113778 80.440889z"  horiz-adv-x="1137" />

    
    <glyph glyph-name="queren-zhengque" unicode="&#58888;" d="M79.288 496c19.2 0 38.4-9.6 54.4-25.6l240-249.6c12.8-16 19.2-16 35.2 0 147.2 153.6 294.4 304 441.6 457.6 16 16 32 35.2 48 51.2 28.8 28.8 70.4 32 99.2 6.4 32-25.6 38.4-73.6 9.6-105.6-32-38.4-67.2-73.6-102.4-108.8-150.4-156.8-300.8-313.6-454.4-470.4-38.4-38.4-80-41.6-115.2-6.4-105.6 108.8-211.2 217.6-313.6 326.4-22.4 25.6-28.8 54.4-12.8 83.2 12.8 25.6 35.2 41.6 70.4 41.6z"  horiz-adv-x="1026" />

    
    <glyph glyph-name="zhangbuguanlianguizeguanli" unicode="&#58933;" d="M634.88 166.4H145.92c-66.56 0-120.32 53.76-120.32 120.32V750.08C25.6 816.64 79.36 870.4 145.92 870.4h488.96c66.56 0 120.32-53.76 120.32-120.32v-35.84c0-25.6-20.48-46.08-46.08-46.08s-46.08 20.48-46.08 46.08V750.08c0 15.36-12.8 28.16-28.16 28.16H145.92c-15.36 0-28.16-12.8-28.16-28.16v-463.36c0-15.36 12.8-28.16 28.16-28.16h488.96c15.36 0 28.16 12.8 28.16 28.16v84.48c0 25.6 20.48 46.08 46.08 46.08s46.08-20.48 46.08-46.08v-84.48c0-66.56-53.76-120.32-120.32-120.32zM414.72-128c-66.56 0-120.32 53.76-120.32 120.32V25.6c0 25.6 20.48 46.08 46.08 46.08s46.08-20.48 46.08-46.08v-33.28c0-15.36 12.8-28.16 28.16-28.16h488.96c15.36 0 28.16 12.8 28.16 28.16V455.68c0 15.36-12.8 28.16-28.16 28.16H414.72c-15.36 0-28.16-12.8-28.16-28.16v-84.48c0-25.6-20.48-46.08-46.08-46.08s-46.08 20.48-46.08 46.08v84.48c0 66.56 53.76 120.32 120.32 120.32h488.96c66.56 0 120.32-53.76 120.32-120.32v-463.36c0-66.56-53.76-120.32-120.32-120.32H414.72z"  horiz-adv-x="1024" />

    
    <glyph glyph-name="queren" unicode="&#58985;" d="M710.4 563.2L428.8 288 313.6 403.2c-19.2 12.8-38.4 12.8-57.6 0-12.8-19.2-12.8-44.8 0-57.6l147.2-140.8c12.8-12.8 38.4-12.8 57.6 0L768 512c12.8 12.8 12.8 38.4 0 51.2-12.8 12.8-38.4 12.8-57.6 0zM512-128c-281.6 0-512 230.4-512 512s230.4 512 512 512c108.8 0 211.2-32 300.8-96 12.8-12.8 19.2-32 6.4-44.8s-32-19.2-44.8-6.4C697.6 806.4 608 832 512 832 262.4 832 64 633.6 64 384s198.4-448 448-448 448 198.4 448 448c0 76.8-19.2 153.6-57.6 224-6.4 12.8-6.4 32 12.8 44.8 12.8 6.4 32 6.4 44.8-12.8 38.4-76.8 64-166.4 64-256 0-281.6-230.4-512-512-512z"  horiz-adv-x="1024" />

    
    <glyph glyph-name="xinxiliebiao" unicode="&#59027;" d="M543.069 636.799h334.234c15.655 0 28.521 12.865 28.521 28.521s-12.865 28.521-28.521 28.521h-334.234c-15.655 0-28.521-12.865-28.521-28.521s12.743-28.521 28.521-28.521zM877.181 534.126h-334.112c-15.655 0-28.521-12.865-28.521-28.521s12.865-28.521 28.521-28.521h334.234c15.655 0 28.521 12.865 28.521 28.521s-12.865 28.521-28.641 28.521zM370.369 754.521h-168.694c-46.846 0-84.955-38.108-84.955-84.955v-168.694c0-46.846 38.108-84.955 84.955-84.955h168.694c46.846 0 84.955 38.108 84.955 84.955v168.694c0 46.846-38.108 84.955-84.955 84.955zM401.923 500.873c0-17.355-14.199-31.554-31.554-31.554h-168.694c-17.355 0-31.554 14.199-31.554 31.554v168.694c0 17.355 14.199 31.554 31.554 31.554h168.694c17.355 0 31.554-14.199 31.554-31.554v-168.694zM877.181 295.284h-334.112c-15.655 0-28.521-12.865-28.521-28.521s12.865-28.521 28.521-28.521h334.234c15.655 0 28.521 12.865 28.521 28.521-0.122 15.655-12.865 28.521-28.641 28.521zM877.181 135.57h-334.112c-15.655 0-28.521-12.865-28.521-28.521s12.865-28.521 28.521-28.521h334.234c15.655 0 28.521 12.865 28.521 28.521-0.122 15.655-12.865 28.521-28.641 28.521zM370.369 356.086h-168.694c-46.846 0-84.955-38.108-84.955-84.955v-168.694c0-46.846 38.108-84.955 84.955-84.955h168.694c46.846 0 84.955 38.108 84.955 84.955v168.694c0 46.846-38.108 84.955-84.955 84.955zM401.923 102.437c0-17.355-14.199-31.554-31.554-31.554h-168.694c-17.355 0-31.554 14.199-31.554 31.554v168.694c0 17.355 14.199 31.554 31.554 31.554h168.694c17.355 0 31.554-14.199 31.554-31.554v-168.694z"  horiz-adv-x="1024" />

    
    <glyph glyph-name="sort" unicode="&#58974;" d="M141.3 475.9V707.2l231.2 0.1 0.1-231.3-231.3-0.1z m231.3 308.4H141.2c-42.5-0.1-76.9-34.5-77-77v-231.5c0.1-42.5 34.5-76.9 77-77h231.5c42.5 0.1 76.9 34.5 77 77V707.3c-0.2 42.5-34.6 76.9-77.1 77zM141.3 13.399999999999977V244.79999999999995l231.2 0.1 0.1-231.3-231.3-0.2z m231.3 308.4H141.2c-42.5-0.1-76.9-34.5-77-77v-231.5c0.1-42.5 34.5-76.9 77-77h231.5c42.5 0.1 76.9 34.5 77 77V244.89999999999998c-0.2 42.4-34.6 76.8-77.1 76.9zM719.4 428L555.8 591.6l163.4 163.6 163.7-163.5L719.4 428z m218 218L773.7 809.6c-30.1 30-78.7 30-108.8 0L501.3 646a76.744 76.744 0 0 1-22.5-54.3c-0.1-20.5 8-40.1 22.5-54.6L665 373.4c30.1-30 78.8-30 108.8 0l163.7 163.7c29.9 30.2 29.9 78.9-0.1 108.9zM603.7 13.399999999999977V244.79999999999995l231.2 0.1 0.1-231.3-231.3-0.2z m231.4 308.4H603.6c-42.5-0.1-76.9-34.5-77-77v-231.5c0.1-42.5 34.5-76.9 77-77h231.5c42.5 0.1 76.9 34.5 77 77V244.89999999999998c-0.1 42.4-34.6 76.8-77 76.9z"  horiz-adv-x="1024" />

    
    <glyph glyph-name="baojiajieshou" unicode="&#59131;" d="M448-47v-80H209c-66.274 0-120 53.726-120 120V775C89 841.274 142.726 895 209 895h587c66.274 0 120-53.726 120-120v-439h-80V775c0 22.091-17.909 40-40 40H209c-22.091 0-40-17.909-40-40v-782c0-22.091 17.909-40 40-40h239zM326 604.5c-22.091 0-40 17.909-40 40s17.909 40 40 40h370.743c22.091 0 40-17.909 40-40s-17.909-40-40-40H326z m0-177c-22.091 0-40 17.909-40 40s17.909 40 40 40h370.743c22.091 0 40-17.909 40-40s-17.909-40-40-40H326z m0-177.5c-22.091 0-40 17.909-40 40s17.909 40 40 40h200c22.091 0 40-17.909 40-40s-17.909-40-40-40H326z m407.656-15.905c16.11 15.873 45.019 15.873 61.018 0 6.4-6.393 12.8-19.069 12.8-28.548 0-12.676-3.2-22.266-12.8-28.55l-77.128-76.276h264.635c22.51 0 41.819-19.07 41.819-41.335 0-22.266-19.31-41.335-41.82-41.335H717.547l77.128-76.277c6.4-6.394 12.8-19.07 12.8-28.55 0-12.675-3.2-22.265-12.8-28.548-6.4-9.48-19.31-12.676-28.909-12.676-9.6 0-22.51 3.197-28.91 12.676L589 30.837c-3.2 3.197-6.4 9.48-9.6 12.676-3.2 9.48-3.2 22.266 0 31.745 0 3.197 3.2 9.48 6.4 12.677l147.856 146.16z"  horiz-adv-x="1024" />

    
    <glyph glyph-name="banbieguanli" unicode="&#58947;" d="M928.8 321.8c17.1 0.5 30.5 15 30.5 32.1V612.8c0 87.1-70.7 157.9-159 157.9h-80V804.9c0 14.9-13.3 27.1-29.8 27.1s-29.8-12.1-29.8-27.1v-34.2H356.8V804.9c0 14.9-13.3 27.1-29.8 27.1s-29.8-12.1-29.8-27.1v-34.2H223c-41.9 0.1-82.2-16.5-111.9-46.1s-46.4-69.8-46.5-111.8v-519.1c0-41.9 16.7-82.1 46.4-111.7 29.7-29.5 70.1-46 112-45.7h304.2c17.1 0 31.1 13.7 31.5 30.9 0.3 17.6-13.8 32.1-31.5 32.1H223.1c-25.2 0-49.4 10-67.2 27.8s-27.8 42-27.7 67.2V514.7h768.3v-161.5c0-17.7 14.5-31.9 32.3-31.4zM128.2 577.7v35.1c-0.1 25.2 9.9 49.4 27.7 67.2s42 27.8 67.2 27.8h73.7v-46.3c-0.1-8 3.1-15.8 8.8-21.5 5.7-5.7 13.4-8.9 21.5-8.8 16.7 0.1 30.2 13.6 30.2 30.3v46.3h303.4v-46.3c-0.1-8 3.1-15.8 8.8-21.5s13.4-8.9 21.5-8.8c8-0.1 15.8 3.1 21.5 8.8s8.8 13.4 8.8 21.5v46.3h80.4c25.2 0.1 49.4-9.9 67.2-27.7s27.8-42 27.8-67.2v-35.1H128.2v-0.1zM196.9 186.2h1.8c39.3 10.3 70.7 24.8 94.3 43.6 8.4 7.3 9.7 16.9 3.6 26l-0.6 1.2c-7.9 7.9-17.5 8.5-26.6 1.2-0.6-0.6-3-1.8-9.6-5.4-1.2-0.6-2.4-1.8-3.6-2.4V320h17.6c6.2-0.1 11.9 3.4 14.5 9.1-1.8-12.7-3.6-24.2-6-35.1-1.8-7.3-1.2-12.7 1.2-16.9 2.7-3.9 6.8-6.5 11.5-7.3h0.6c10.9-1.2 19.4 4.2 23.6 15.1l0.6 1.2c4.8 20.6 8.5 45.4 10.9 73.9 1.8 27.8 3.6 56.9 4.2 87.7v1.1c-1.2 10.3-8.5 15.7-19.4 15.7h-0.6c-9.7-1.2-15.7-6.1-16.9-13.9v0.6c-1.8 13.9-10.3 17.5-15.7 18.2h-81.6c-10.9-1.2-16.9-7.9-16.9-18.8s7.3-17.5 18.1-17.5h17.5v-76.8h-15.7c-10.9-1.2-16.9-7.9-16.9-18.8s7.3-17.6 18.1-17.6H220v-89.6c-8.6-3.5-17.5-6.2-26.6-7.9h-1.2c-14.5-5.4-16.9-14.5-15.7-20.6v-1.3c3.5-9.4 10.7-14.3 20.4-14.3z m61 247.5h24.2c4.2 0 13.9 1.2 16.3 15.1v-1.8c-1.2-35.1-3-64.1-5.4-87.1l-1.8-18.2c-2.4 10.9-10.3 13.9-15.1 14.5H258v77.5h-0.1zM379.4 211.1c-11.5 0-18.1-6.6-18.1-18.7 0-11.5 6.1-18.8 16.9-20h111.2c5.4 0.6 15.1 4.2 16.9 19.4V193c-1.2 16.3-12.7 18.2-17.5 18.2h-33.2v95.6h19.9c4.2 0 15.7 1.8 17.5 18.2v1.2c-1.2 10.3-7.3 16.9-16.9 18.1H455v86.5h29.6c4.2 0 14.5 1.8 16.3 16.9v1.1c-1.8 13.9-10.3 17.6-15.7 18.2h-90.7c-7.9-1.2-13.9-4.2-16.9-9.6-1.8 9.7-7.9 15.7-18.7 16.9h-1.2c-16.9-1.8-18.7-12.7-18.7-17.6v-155c0.6-53.8-21.1-85.9-67.7-98-12.7-3-18.7-12.1-16.3-23.6l0.6-1.8c4.2-9.1 10.8-13.3 19.9-13.3 2.9 0.1 5.7 0.6 8.4 1.2 66.6 22.4 98 68.4 93.2 136.7v12.7c2.4-6 8.5-9.6 16.3-9.6h24.8v-94.9h-38.8z m36.9 132.5h-23.6c-7.9-0.6-13.3-4.2-15.7-10.3V438.6c3.1-5.4 9.1-7.9 17.5-7.9h21.8v-87.1zM275.5 165c-0.1 0-0.1 0 0 0-0.1 0-0.1 0 0 0zM737.3 125.8h84.4c13.9 0 25.2 11.3 25.2 25.2s-11.3 25.2-25.2 25.2h-56.2v56.2c0 13.9-11.3 25.2-25.2 25.2s-25.2-11.3-25.2-25.2V148c0-12.2 9.9-22.2 22.2-22.2zM899.3 309.1c-41.8 41.8-97 64.8-155.5 64.8s-113.8-23-155.5-64.8c-41.8-41.8-64.8-97-64.8-155.5s23-113.8 64.8-155.5c41.8-41.8 97-64.8 155.5-64.8s113.8 23 155.5 64.8 64.8 97 64.8 155.5-23 113.8-64.8 155.5z m-155.5 9.3c90.9 0 164.8-73.9 164.8-164.8s-73.9-164.8-164.8-164.8c-90.8 0-164.7 73.9-164.7 164.8 0.4 90.4 74.3 164.3 164.7 164.8z"  horiz-adv-x="1024" />

    
    <glyph glyph-name="paibanguanli" unicode="&#58948;" d="M928.8 321.8c17.1 0.5 30.5 15 30.5 32.1V612.8c0 87.1-70.7 157.9-159 157.9h-80V804.9c0 14.9-13.3 27.1-29.8 27.1s-29.8-12.1-29.8-27.1v-34.2H356.8V804.9c0 14.9-13.3 27.1-29.8 27.1s-29.8-12.1-29.8-27.1v-34.2H223c-41.9 0.1-82.2-16.5-111.9-46.1-29.7-29.6-46.4-69.8-46.5-111.8v-519.1c0-41.9 16.7-82.1 46.4-111.7 29.7-29.5 70.1-46 112-45.7h304.2c17.1 0 31.1 13.7 31.5 30.9 0.3 17.6-13.8 32.1-31.5 32.1H223.1c-25.2 0-49.4 10-67.2 27.8-17.8 17.8-27.8 42-27.7 67.2V514.7h768.3v-161.5c0-17.7 14.5-31.9 32.3-31.4zM128.2 577.7v35.1c-0.1 25.2 9.9 49.4 27.7 67.2 17.8 17.8 42 27.8 67.2 27.8h73.7v-46.3c-0.1-8 3.1-15.8 8.8-21.5 5.7-5.7 13.4-8.9 21.5-8.8 16.7 0.1 30.2 13.6 30.2 30.3v46.3h303.4v-46.3c-0.1-8 3.1-15.8 8.8-21.5 5.7-5.7 13.4-8.9 21.5-8.8 8-0.1 15.8 3.1 21.5 8.8 5.7 5.7 8.8 13.4 8.8 21.5v46.3h80.4c25.2 0.1 49.4-9.9 67.2-27.7 17.8-17.8 27.8-42 27.8-67.2v-35.1H128.2zM636.2-40.9h1.8c40.6 10.6 73.1 25.6 97.4 45 8.7 7.5 10 17.5 3.7 26.9l-0.6 1.3c-8.1 8.1-18.1 8.7-27.5 1.2-0.6-0.7-3.1-1.9-10-5.6-1.2-0.6-2.5-1.9-3.8-2.5v71.9h18.2c6.4-0.1 12.3 3.5 14.9 9.4-1.9-13.1-3.8-25-6.2-36.3-1.9-7.5-1.3-13.1 1.2-17.5 2.8-4 7.1-6.7 11.9-7.5h0.6c11.3-1.3 20 4.4 24.4 15.6l0.6 1.3c5 21.3 8.7 46.9 11.2 76.3 1.9 28.7 3.8 58.8 4.4 90.6v1.2c-1.3 10.6-8.7 16.3-20 16.3h-0.4c-10-1.3-16.3-6.3-17.5-14.4v0.6c-1.9 14.4-10.6 18.1-16.2 18.8H640c-11.2-1.2-17.5-8.1-17.5-19.4 0-11.3 7.5-18.1 18.7-18.1h18.1v-79.4H643c-11.2-1.3-17.5-8.1-17.5-19.4 0-11.3 7.5-18.1 18.7-18.1h15.6v-92.5c-8.9-3.6-18.1-6.4-27.5-8.1h-1.2c-15-5.6-17.5-15-16.2-21.3v-1.3c3.8-10 11.3-15 21.3-15z m63 255.7h25c4.4 0 14.4 1.2 16.9 15.6v-1.9c-1.3-36.3-3.1-66.3-5.6-90l-1.9-18.8c-2.5 11.3-10.6 14.4-15.6 15h-18.7v80.1zM828.8-15.2c-11.9 0-18.7-6.9-18.7-19.4 0-11.9 6.3-19.4 17.5-20.6h114.9c5.6 0.6 15.6 4.4 17.5 20V-34c-1.3 16.9-13.1 18.8-18.1 18.8h-34.3v98.8h20.6c4.4 0 16.3 1.9 18.1 18.8v1.2c-1.3 10.6-7.5 17.5-17.5 18.7h-21.9v89.4h30.6c4.4 0 15 1.9 16.9 17.5v1.1c-1.9 14.4-10.6 18.1-16.2 18.8h-93.7c-8.1-1.2-14.4-4.3-17.5-10-1.9 10-8.1 16.3-19.4 17.5h-1.2c-17.5-1.9-19.4-13.2-19.4-18.1v-160.2c0.6-55.6-21.8-88.7-70-101.2-13.1-3.1-19.4-12.5-16.9-24.4l0.6-1.9c4.4-9.4 11.2-13.7 20.5-13.8 2.9 0.1 5.9 0.6 8.7 1.3 68.8 23.1 101.2 70.6 96.3 141.3v13.1c2.5-6.2 8.7-10 16.9-10h25.6v-98.1h-39.9z m38.1 136.8h-24.4c-8.1-0.7-13.8-4.4-16.2-10.6V219.8c3.2-5.6 9.4-8.1 18.1-8.1h22.5v-90.1zM690.2-62.9c-0.1 0-0.1 0 0 0zM322.2 289.2h-94.6c-17.7 0-32.1 14.8-32.1 33V415c0 18.2 14.4 33 32.1 33h94.6c17.7 0 32.1-14.9 32.1-33v-92.7c-0.1-18.2-14.4-33.1-32.1-33.1z m-87 39.8h79.4v79.4h-79.4V329z m325.1-39.8h-94.6c-17.7 0-32.1 14.8-32.1 33V415c0 18.2 14.4 33 32.1 33h94.6c17.7 0 32.1-14.9 32.1-33v-92.7c0-18.2-14.4-33.1-32.1-33.1z m-87 39.8h79.4v79.4h-79.4V329z m325.1-39.8h-94.5c-17.7 0-32.1 14.8-32.1 33V415c0 18.2 14.4 33 32.1 33h94.5c17.7 0 32.1-14.9 32.1-33v-92.7c0-18.2-14.4-33.1-32.1-33.1z m-87 39.8h79.4v79.4h-79.4V329z m0 0"  horiz-adv-x="1024" />

    
    <glyph glyph-name="banzuguanli" unicode="&#58951;" d="M927.9 321.8c17.4 0 31.4 14.1 31.4 31.4V612.8c0 87.1-70.7 157.9-159 157.9H223.1c-41.9 0.1-82.2-16.5-111.9-46.1s-46.4-69.8-46.5-111.8v-519.1c0-41.9 16.7-82.1 46.4-111.7 29.7-29.5 70.1-46 112-45.7h344.5c17.1 0.4 30.8 14.4 30.8 31.5 0 3.6-0.6 7-1.7 10.2 5.9 73 71.1 130.9 150 130.9 82.8 0 150.5-63.5 150.5-141.6-0.1-8 3.1-15.8 8.8-21.5s13.4-8.9 21.5-8.8c8-0.1 15.8 3.1 21.5 8.8s8.8 13.4 8.8 21.5c0 83.1-52.8 154.7-127.9 185.7 24 21.6 39 52.2 39 86 0 65.9-55.6 119.2-124.5 119.2S619.3 305 619.9 239.6c0-34.9 15.6-66.2 40.5-88-63.5-27.5-110.5-84.3-121.8-152.3H223.1c-25.2 0-49.4 10-67.2 27.8s-27.8 42-27.7 67.2V514.7h768.3v-161.5c0-17.4 14-31.4 31.4-31.4z m-183.7-24.2c35.1 0 64.1-26 64.1-58.7s-29-58.7-64.1-58.7c-35 0-64.1 26-64.1 58.7 0.1 32.7 28.5 58.7 64.1 58.7z m-616 280.1v35.1c-0.1 25.2 9.9 49.4 27.7 67.2s42 27.8 67.2 27.8h73.7v-46.3c-0.1-8 3.1-15.8 8.8-21.5 5.7-5.7 13.4-8.9 21.5-8.8 16.7 0.1 30.2 13.6 30.2 30.3v46.3h303.4v-46.3c-0.1-8 3.1-15.8 8.8-21.5s13.4-8.9 21.5-8.8c8-0.1 15.8 3.1 21.5 8.8s8.8 13.4 8.8 21.5v46.3h80.4c25.2 0.1 49.4-9.9 67.2-27.7s27.8-42 27.8-67.2v-35.1H128.2v-0.1zM212.8 134.2h1.8c39.3 10.3 70.7 24.8 94.3 43.6 8.4 7.3 9.7 16.9 3.6 26l-0.6 1.2c-7.9 7.9-17.5 8.5-26.6 1.2-0.6-0.6-3-1.8-9.6-5.4-1.2-0.6-2.4-1.8-3.6-2.4V268h17.6c6.2-0.1 11.9 3.4 14.5 9.1-1.8-12.7-3.6-24.2-6-35.1-1.8-7.3-1.2-12.7 1.2-16.9 2.7-3.9 6.8-6.5 11.5-7.3h0.6c10.9-1.2 19.4 4.2 23.6 15.1l0.6 1.2c4.8 20.6 8.5 45.4 10.9 73.9 1.8 27.8 3.6 56.9 4.2 87.7v1.1c-1.2 10.3-8.5 15.7-19.4 15.7h-0.6c-9.7-1.2-15.7-6.1-16.9-13.9v0.6c-1.8 13.9-10.3 17.5-15.7 18.2h-81.6c-10.9-1.2-16.9-7.9-16.9-18.8s7.3-17.5 18.1-17.5h17.5v-76.8h-15.7c-10.9-1.2-16.9-7.9-16.9-18.8s7.3-17.6 18.1-17.6h15.1v-89.6c-8.6-3.5-17.5-6.2-26.6-7.9H208c-14.5-5.4-16.9-14.5-15.7-20.6v-1.3c3.6-9.5 10.9-14.3 20.5-14.3z m101.6 262.6v-1.8c-1.2-35.1-3-64.1-5.4-87.1l-1.8-18.2c-2.4 10.9-10.3 13.9-15.1 14.5H274v77.4h24c4.3 0 13.9 1.2 16.4 15.2zM395.3 159c-11.5 0-18.1-6.6-18.1-18.7 0-11.5 6.1-18.8 16.9-20h111.2c5.4 0.6 15.1 4.2 16.9 19.4v1.2c-1.2 16.3-12.7 18.2-17.5 18.2h-33.2v95.6h19.9c4.2 0 15.7 1.8 17.5 18.2V274c-1.2 10.3-7.3 16.9-16.9 18.1h-21.1v86.5h29.6c4.2 0 14.5 1.8 16.3 16.9v1.1c-1.8 13.9-10.3 17.6-15.7 18.2h-90.7c-7.9-1.2-13.9-4.2-16.9-9.6-1.8 9.7-7.9 15.7-18.7 16.9h-1.2c-16.9-1.8-18.7-12.7-18.7-17.6v-155c0.6-53.8-21.1-85.9-67.7-98-12.7-3-18.7-12.1-16.3-23.6l0.6-1.8c4.2-9.1 10.8-13.3 19.9-13.3 2.9 0.1 5.7 0.6 8.4 1.2 66.6 22.4 98 68.4 93.2 136.7v12.7c2.4-6 8.5-9.6 16.3-9.6H434V159h-38.7z m-2.4 122.2V386.5c3.1-5.4 9.1-7.9 17.5-7.9h21.8v-87.1h-23.6c-7.8-0.7-13.3-4.2-15.7-10.3zM291.4 112.9c-0.1 0-0.1 0 0 0-0.1 0-0.1 0 0 0zM327 673.3c-16.5 0-29.8 12.2-29.8 27.1V804.9c0 15 13.3 27.1 29.8 27.1s29.8-12.2 29.8-27.1v-104.5c0-15-13.3-27.1-29.8-27.1M690.5 673.3c-16.5 0-29.8 12.2-29.8 27.1V804.9c0 15 13.3 27.1 29.8 27.1s29.8-12.2 29.8-27.1v-104.5c0-15-13.3-27.1-29.8-27.1"  horiz-adv-x="1024" />

    
    <glyph glyph-name="zy_zuzhi" unicode="&#58880;" d="M238.93333333 226.13333334000004h-68.26666666V430.93333334h307.2V567.46666667h68.26666666v-136.53333333h307.2v-204.8h-68.26666666V362.66666667000004H546.13333333v-136.53333333h-68.26666666V362.66666667000004H238.93333333v-136.53333333z m273.06666667 409.6c56.32 0 102.4 46.08 102.4 102.4s-46.08 102.4-102.4 102.4-102.4-46.08-102.4-102.4 46.08-102.4 102.4-102.4z m0-477.86666667c-56.32 0-102.4-46.08-102.4-102.4s46.08-102.4 102.4-102.4 102.4 46.08 102.4 102.4-46.08 102.4-102.4 102.4z m-307.2 0c-56.32 0-102.4-46.08-102.4-102.4s46.08-102.4 102.4-102.4 102.4 46.08 102.4 102.4-46.08 102.4-102.4 102.4z m614.4 0c-56.32 0-102.4-46.08-102.4-102.4s46.08-102.4 102.4-102.4 102.4 46.08 102.4 102.4-46.08 102.4-102.4 102.4z"  horiz-adv-x="1024" />

    
    <glyph glyph-name="yonghuguanli" unicode="&#59148;" d="M955.456 130.88a41.792 41.792 0 0 1-34.368 32.64 8.256 8.256 0 0 0-6.08 3.904 8.256 8.256 0 0 0-0.384 7.104 41.856 41.856 0 0 1-11.136 45.696 165.76 165.76 0 0 1-60.096 34.56 41.728 41.728 0 0 1-45.056-13.12c-1.216-1.472-3.328-3.264-6.336-3.264s-5.12 1.728-6.336 3.264a41.6 41.6 0 0 1-45.056 13.184 166.4 166.4 0 0 1-60.224-34.624 41.728 41.728 0 0 1-11.136-45.632 8.064 8.064 0 0 0-0.384-7.104 8.256 8.256 0 0 0-6.08-3.904 41.728 41.728 0 0 1-34.304-32.64 166.72 166.72 0 0 1 0-68.928c3.584-16.96 17.28-29.952 34.432-32.64 1.92-0.32 4.544-1.216 6.08-3.904a8.256 8.256 0 0 0 0.384-7.104 41.6 41.6 0 0 1 11.136-45.696c17.344-15.616 37.568-27.2 60.096-34.56a41.728 41.728 0 0 1 45.056 13.056c1.216 1.472 3.328 3.264 6.336 3.264s5.12-1.728 6.336-3.264a41.728 41.728 0 0 1 45.056-13.12c22.528 7.296 42.688 18.88 59.968 34.432 12.8 11.52 17.216 29.696 11.136 45.76a8.192 8.192 0 0 0 0.384 7.168 8.256 8.256 0 0 0 6.08 3.904 41.728 41.728 0 0 1 34.496 32.64 166.144 166.144 0 0 1 0 68.928z m-40.832-60.288a49.92 49.92 0 0 1-35.904-24.256 49.92 49.92 0 0 1-3.264-42.752 123.584 123.584 0 0 0-44.992-25.792 49.92 49.92 0 0 1-38.528 18.432 49.664 49.664 0 0 1-38.528-18.432 125.44 125.44 0 0 0-45.056 25.856 49.728 49.728 0 0 1-39.04 66.944 123.712 123.712 0 0 0 0 51.776 49.92 49.92 0 0 1 35.648 24.256 49.92 49.92 0 0 1 3.328 42.624c12.928 11.648 28.224 20.416 45.12 25.92a49.92 49.92 0 0 1 38.528-18.432c15.68 0 29.44 7.296 38.592 18.432 16.896-5.504 32.128-14.272 45.056-25.856a49.728 49.728 0 0 1 39.04-66.944 122.624 122.624 0 0 0 0-51.776zM791.936 159.04c-34.496 0-62.592-28.096-62.592-62.592s28.096-62.592 62.592-62.592 62.592 28.096 62.592 62.592-28.096 62.592-62.592 62.592z m0-83.456a20.864 20.864 0 1 0 0 41.728 20.864 20.864 0 0 0 0-41.728zM670.336 307.264c0.256-0.128 0.512-0.064 0.768-0.128l1.472-0.512 0.064 0.256a35.392 35.392 0 0 1 22.912 67.008l-0.384 0.064c-8.512 3.392-17.472 6.144-26.304 9.088a247.424 247.424 0 0 1 104.192 201.472 248.192 248.192 0 1 1-496.384 0c0-83.072 41.216-156.224 103.936-201.28-175.68-57.984-304.832-218.368-315.776-410.688 0-0.128 0.256-0.192 0.256-0.256a35.328 35.328 0 0 1 68.608-13.504c1.344 3.456 1.536 7.04 1.728 10.56l0.256 0.192a390.016 390.016 0 0 0 389.248 366.336c51.264 0 100.032-10.176 144.832-28.16 0.192-0.192 0.32-0.384 0.576-0.448zM347.648 584.576a177.28 177.28 0 1 0 354.56 0 177.28 177.28 0 0 0-354.56 0z"  horiz-adv-x="1024" />

    
    <glyph glyph-name="remind" unicode="&#58916;" d="M916.804 159.642c-63.42 55.057-108.749 201.284-108.749 373.043 0 130.014-83.285 240.265-199.134 280.61-7.817 46.899-48.162 82.739-97.109 82.739-48.947 0-89.293-35.84-97.109-82.739-115.849-40.346-199.134-150.596-199.134-280.61 0-171.725-45.295-317.952-108.749-373.009-35.43-30.754-55.808-75.435-55.808-122.47 0-54.75 44.203-99.123 98.748-99.123h296.209c0-54.716 11.298-66.048 65.843-66.048 54.545 0 65.843 11.332 65.843 66.048h296.209c54.545 0 98.748 44.373 98.748 99.123 0 47.002-20.343 91.682-55.808 122.436zM187.546 8.533c-59.563 0-62.805 64.239-49.084 76.186 88.166 76.493 142.95 248.149 142.95 447.966 0 109.295 121.515 231.219 230.4 231.219 108.885 0 230.4-121.924 230.4-231.219 0-199.817 54.784-371.507 142.95-448 13.756-11.913 20.855-76.151-49.084-76.151h-648.533z"  horiz-adv-x="1024" />

    
    <glyph glyph-name="tiaodu" unicode="&#59060;" d="M874.666667-128H149.333333c-83.2 0-149.333333 66.133333-149.333333 149.333333V746.666667c0 83.2 66.133333 149.333333 149.333333 149.333333h725.333334c83.2 0 149.333333-66.133333 149.333333-149.333333v-725.333334c0-83.2-66.133333-149.333333-149.333333-149.333333zM149.333333 810.666667C113.066667 810.666667 85.333333 782.933333 85.333333 746.666667v-725.333334c0-36.266667 27.733333-64 64-64h725.333334c36.266667 0 64 27.733333 64 64V746.666667c0 36.266667-27.733333 64-64 64H149.333333zM770.133333 584.533333h-42.666666c-17.066667 38.4-53.333333 64-98.133334 64s-81.066667-25.6-98.133333-64h-277.333333c-23.466667 0-40.533333-19.2-40.533334-40.533333v-2.133333c0-23.466667 19.2-40.533333 40.533334-40.533334h277.333333c17.066667-38.4 53.333333-64 98.133333-64s81.066667 25.6 98.133334 64h42.666666c23.466667 0 40.533333 19.2 40.533334 40.533334v2.133333c0 21.333333-19.2 40.533333-40.533334 40.533333zM770.133333 264.533333h-277.333333c-17.066667 38.4-53.333333 64-98.133333 64s-81.066667-25.6-98.133334-64h-42.666666c-23.466667 0-40.533333-19.2-40.533334-40.533333v-2.133333c0-23.466667 19.2-40.533333 40.533334-40.533334h42.666666c17.066667-38.4 53.333333-64 98.133334-64s81.066667 25.6 98.133333 64h277.333333c23.466667 0 40.533333 19.2 40.533334 40.533334v2.133333c0 21.333333-19.2 40.533333-40.533334 40.533333z"  horiz-adv-x="1024" />

    
    <glyph glyph-name="tiaoduguanli" unicode="&#58975;" d="M905 829.8H121c-30.3 0-55-24.7-55-55v-560c0-30.3 24.7-55 55-55h784c30.3 0 55 24.7 55 55v560c0 30.3-24.7 55-55 55z m-9-606H130v542h766v-542zM671.3 32.2h-125V157.5h-70v-125.3H352.1c-17.7 0-32-14.3-32-32s14.3-32 32-32h319.3c17.7 0 32 14.3 32 32-0.1 17.6-14.4 32-32.1 32zM799.4 640.2H427.2c-12.2 28.3-40.3 48.1-73 48.1-32.8 0-60.9-19.8-73-48.1h-57.9c-17.6 0-32-14.4-32-32s14.4-32 32-32h58.4c12.5-27.6 40.2-46.9 72.5-46.9s60 19.2 72.5 46.9h372.7c17.6 0 32 14.4 32 32s-14.4 32-32 32z m0-212.8h-42c-12.3 28-40.3 47.6-72.8 47.6-32.6 0-60.6-19.6-72.8-47.6H223.2c-17.6 0-32-14.4-32-32s14.4-32 32-32h388.6c12.4-27.9 40.2-47.3 72.7-47.3s60.3 19.5 72.7 47.3h42.1c17.6 0 32 14.4 32 32 0.1 17.6-14.3 32-31.9 32z"  horiz-adv-x="1024" />

    
    </font>
</defs>
</svg>
